<?xml version="1.0" encoding="UTF-8"?>
<svg xmlns="http://www.w3.org/2000/svg" xmlns:xlink="http://www.w3.org/1999/xlink" width="40pt" height="40pt" viewBox="0 0 40 40" version="1.1">
<g id="surface1">
<path style=" stroke:none;fill-rule:nonzero;fill:rgb(0%,0%,0%);fill-opacity:1;" d="M 12.289062 19.921875 C 12.289062 19.921875 12.289062 19.925781 12.292969 19.925781 C 12.332031 19.96875 12.378906 20.007812 12.425781 20.042969 C 14.449219 21.832031 17.105469 22.921875 20.007812 22.921875 C 22.917969 22.921875 25.574219 21.832031 27.59375 20.042969 C 27.640625 20.007812 27.6875 19.96875 27.726562 19.925781 C 27.730469 19.925781 27.730469 19.921875 27.730469 19.921875 C 30.027344 17.824219 31.46875 14.808594 31.46875 11.460938 C 31.46875 5.140625 26.328125 0 20.007812 0 C 13.691406 0 8.550781 5.140625 8.550781 11.460938 C 8.550781 14.808594 9.992188 17.824219 12.289062 19.921875 Z M 19.230469 12.242188 L 19.230469 21.328125 C 17.292969 21.175781 15.507812 20.460938 14.042969 19.351562 C 15.878906 17.421875 16.984375 14.898438 17.167969 12.242188 Z M 22.851562 12.242188 C 23.035156 14.898438 24.140625 17.421875 25.976562 19.351562 C 24.511719 20.460938 22.726562 21.175781 20.792969 21.328125 L 20.792969 12.242188 Z M 12.875 18.3125 C 11.335938 16.710938 10.328125 14.589844 10.144531 12.242188 L 15.601562 12.242188 C 15.421875 14.515625 14.457031 16.664062 12.875 18.3125 Z M 27.144531 18.3125 C 25.5625 16.664062 24.597656 14.515625 24.417969 12.242188 L 29.875 12.242188 C 29.691406 14.589844 28.683594 16.710938 27.144531 18.3125 Z M 29.875 10.679688 L 24.417969 10.679688 C 24.597656 8.40625 25.566406 6.253906 27.144531 4.605469 C 28.683594 6.210938 29.691406 8.332031 29.875 10.679688 Z M 25.976562 3.566406 C 24.144531 5.5 23.035156 8.023438 22.851562 10.679688 L 20.792969 10.679688 L 20.792969 7.578125 C 20.792969 7.148438 20.441406 6.796875 20.011719 6.796875 C 19.578125 6.796875 19.230469 7.148438 19.230469 7.578125 L 19.230469 10.679688 L 17.167969 10.679688 C 16.984375 8.023438 15.875 5.5 14.042969 3.566406 C 15.703125 2.308594 17.769531 1.5625 20.007812 1.5625 C 22.25 1.5625 24.316406 2.308594 25.976562 3.566406 Z M 12.875 4.605469 C 14.453125 6.253906 15.421875 8.40625 15.601562 10.679688 L 10.144531 10.679688 C 10.328125 8.332031 11.335938 6.210938 12.875 4.605469 Z M 12.875 4.605469 "/>
<path style=" stroke:none;fill-rule:nonzero;fill:rgb(0%,0%,0%);fill-opacity:1;" d="M 20.011719 5.261719 C 20.214844 5.261719 20.417969 5.179688 20.5625 5.035156 C 20.707031 4.890625 20.792969 4.6875 20.792969 4.480469 C 20.792969 4.277344 20.707031 4.074219 20.5625 3.929688 C 20.417969 3.785156 20.214844 3.699219 20.011719 3.699219 C 19.804688 3.699219 19.601562 3.785156 19.457031 3.929688 C 19.3125 4.074219 19.230469 4.277344 19.230469 4.480469 C 19.230469 4.6875 19.3125 4.890625 19.457031 5.035156 C 19.601562 5.179688 19.804688 5.261719 20.011719 5.261719 Z M 20.011719 5.261719 "/>
<path style=" stroke:none;fill-rule:nonzero;fill:rgb(0%,0%,0%);fill-opacity:1;" d="M 16.675781 25.335938 C 16.527344 25.480469 16.445312 25.683594 16.445312 25.890625 C 16.445312 26.09375 16.527344 26.296875 16.675781 26.441406 C 16.820312 26.585938 17.019531 26.671875 17.226562 26.671875 C 17.433594 26.671875 17.632812 26.585938 17.777344 26.441406 C 17.925781 26.296875 18.007812 26.09375 18.007812 25.890625 C 18.007812 25.683594 17.925781 25.480469 17.777344 25.335938 C 17.632812 25.191406 17.433594 25.109375 17.226562 25.109375 C 17.019531 25.109375 16.820312 25.191406 16.675781 25.335938 Z M 16.675781 25.335938 "/>
<path style=" stroke:none;fill-rule:nonzero;fill:rgb(0%,0%,0%);fill-opacity:1;" d="M 32.34375 25.890625 C 32.34375 25.457031 31.992188 25.109375 31.5625 25.109375 L 20 25.109375 C 19.570312 25.109375 19.21875 25.457031 19.21875 25.890625 C 19.21875 26.320312 19.570312 26.671875 20 26.671875 L 30.78125 26.671875 L 30.78125 28.859375 L 9.21875 28.859375 L 9.21875 26.671875 L 14.082031 26.671875 C 14.511719 26.671875 14.863281 26.320312 14.863281 25.890625 C 14.863281 25.457031 14.511719 25.109375 14.082031 25.109375 L 8.4375 25.109375 C 8.007812 25.109375 7.65625 25.457031 7.65625 25.890625 L 7.65625 29.640625 C 7.65625 29.726562 7.671875 29.8125 7.699219 29.894531 C 7.703125 29.90625 7.707031 29.917969 7.714844 29.933594 C 7.714844 29.9375 7.714844 29.9375 7.71875 29.941406 C 7.71875 29.941406 7.71875 29.941406 7.71875 29.945312 C 8.902344 32.839844 9.503906 35.890625 9.503906 39.019531 L 9.503906 39.21875 C 9.503906 39.648438 9.855469 40 10.285156 40 C 10.570312 40 10.820312 39.847656 10.957031 39.621094 C 10.960938 39.613281 10.964844 39.609375 10.96875 39.601562 L 10.972656 39.59375 C 10.972656 39.589844 10.972656 39.589844 10.972656 39.589844 L 13.523438 35.035156 L 16.082031 39.601562 C 16.222656 39.855469 16.488281 40 16.761719 40 C 16.890625 40 17.023438 39.96875 17.144531 39.902344 C 17.269531 39.828125 17.367188 39.730469 17.4375 39.613281 C 17.4375 39.609375 17.441406 39.605469 17.445312 39.601562 L 20 35.035156 L 22.554688 39.601562 C 22.699219 39.855469 22.964844 40 23.238281 40 C 23.367188 40 23.5 39.96875 23.621094 39.902344 C 23.746094 39.828125 23.84375 39.726562 23.914062 39.609375 C 23.914062 39.605469 23.917969 39.605469 23.917969 39.601562 L 26.476562 35.035156 L 29.027344 39.589844 C 29.027344 39.589844 29.027344 39.589844 29.027344 39.59375 L 29.03125 39.601562 C 29.03125 39.601562 29.035156 39.601562 29.035156 39.605469 C 29.167969 39.839844 29.421875 40 29.714844 40 C 30.144531 40 30.496094 39.648438 30.496094 39.21875 L 30.496094 39.019531 C 30.496094 35.890625 31.097656 32.839844 32.28125 29.945312 C 32.28125 29.941406 32.28125 29.941406 32.28125 29.941406 C 32.285156 29.9375 32.285156 29.9375 32.285156 29.9375 C 32.289062 29.929688 32.289062 29.921875 32.292969 29.917969 C 32.324219 29.832031 32.34375 29.738281 32.34375 29.640625 Z M 27.269531 30.421875 L 26.476562 31.835938 L 25.683594 30.421875 Z M 20.792969 30.421875 L 20 31.835938 L 19.207031 30.421875 Z M 14.316406 30.421875 L 13.523438 31.835938 L 12.730469 30.421875 Z M 10.9375 36.453125 C 10.730469 34.394531 10.277344 32.375 9.574219 30.421875 L 10.941406 30.421875 L 12.628906 33.4375 Z M 16.761719 37.621094 L 14.417969 33.4375 L 16.109375 30.421875 L 17.417969 30.421875 L 19.105469 33.4375 Z M 23.238281 37.621094 L 20.894531 33.4375 L 22.582031 30.421875 L 23.890625 30.421875 L 25.582031 33.4375 Z M 29.058594 30.421875 L 30.425781 30.421875 C 29.722656 32.375 29.269531 34.394531 29.0625 36.453125 L 27.371094 33.4375 Z M 29.058594 30.421875 "/>
</g>
</svg>
