<?xml version="1.0" encoding="UTF-8"?>
<svg xmlns="http://www.w3.org/2000/svg" xmlns:xlink="http://www.w3.org/1999/xlink" width="50pt" height="50pt" viewBox="0 0 50 50" version="1.1">
<g id="surface1">
<path style=" stroke:none;fill-rule:nonzero;fill:rgb(94.117647%,73.72549%,36.862745%);fill-opacity:1;" d="M 45.300781 6.171875 L 45.15625 6.195312 C 44.925781 6.230469 44.722656 6.25 44.53125 6.25 C 42.378906 6.25 40.625 4.496094 40.625 2.34375 C 40.625 2.15625 40.644531 1.949219 40.679688 1.71875 L 40.703125 1.574219 C 38.332031 1.503906 35.488281 2.71875 33.167969 5.042969 C 30.84375 7.363281 29.628906 10.207031 29.699219 12.578125 L 29.84375 12.554688 C 30.074219 12.519531 30.277344 12.5 30.46875 12.5 C 32.621094 12.5 34.375 14.253906 34.375 16.40625 C 34.375 16.59375 34.355469 16.800781 34.320312 17.03125 L 34.296875 17.175781 C 36.667969 17.246094 39.511719 16.03125 41.832031 13.707031 C 44.15625 11.386719 45.371094 8.539062 45.300781 6.171875 Z M 45.300781 6.171875 "/>
<path style=" stroke:none;fill-rule:nonzero;fill:rgb(94.117647%,73.72549%,36.862745%);fill-opacity:1;" d="M 26.5625 38.28125 L 23.4375 38.28125 C 21.285156 38.28125 19.53125 40.035156 19.53125 42.1875 L 19.53125 48.265625 C 21.285156 48.375 23.117188 48.4375 25 48.4375 C 26.882812 48.4375 28.714844 48.375 30.46875 48.265625 L 30.46875 42.1875 C 30.46875 40.035156 28.714844 38.28125 26.5625 38.28125 Z M 26.5625 38.28125 "/>
<path style=" stroke:none;fill-rule:nonzero;fill:rgb(94.117647%,73.72549%,36.862745%);fill-opacity:1;" d="M 25 21.875 C 12.054688 21.875 1.5625 19.078125 1.5625 15.625 L 1.5625 20.636719 C 4.460938 23.992188 14.996094 25.78125 25 25.78125 C 35.003906 25.78125 45.539062 23.992188 48.4375 20.636719 L 48.4375 15.625 C 48.4375 19.078125 37.945312 21.875 25 21.875 Z M 25 21.875 "/>
<path style=" stroke:none;fill-rule:nonzero;fill:rgb(94.117647%,73.72549%,36.862745%);fill-opacity:1;" d="M 20.3125 32.03125 L 29.6875 32.03125 L 29.6875 33.59375 L 20.3125 33.59375 Z M 20.3125 32.03125 "/>
<path style=" stroke:none;fill-rule:nonzero;fill:rgb(0%,0%,0%);fill-opacity:1;" d="M 34.605469 11.167969 L 35.707031 12.269531 L 36.328125 11.652344 L 37.730469 13.050781 L 38.832031 11.949219 L 37.433594 10.546875 L 38.671875 9.308594 L 40.074219 10.707031 L 41.175781 9.605469 L 39.777344 8.203125 L 40.394531 7.582031 L 39.292969 6.480469 L 38.671875 7.097656 L 37.269531 5.699219 L 36.167969 6.800781 L 37.566406 8.203125 L 36.328125 9.441406 L 34.925781 8.042969 L 33.824219 9.144531 L 35.222656 10.546875 Z M 34.605469 11.167969 "/>
<path style=" stroke:none;fill-rule:nonzero;fill:rgb(0%,0%,0%);fill-opacity:1;" d="M 11.566406 17.574219 L 11.871094 19.109375 C 14.804688 18.53125 18.273438 18.15625 21.902344 18.023438 L 21.847656 16.464844 C 18.136719 16.597656 14.582031 16.984375 11.566406 17.574219 Z M 11.566406 17.574219 "/>
<path style=" stroke:none;fill-rule:nonzero;fill:rgb(0%,0%,0%);fill-opacity:1;" d="M 23.453125 17.984375 C 23.960938 17.972656 24.476562 17.96875 25 17.96875 L 25 16.40625 C 24.464844 16.40625 23.941406 16.410156 23.421875 16.421875 Z M 23.453125 17.984375 "/>
<path style=" stroke:none;fill-rule:nonzero;fill:rgb(0%,0%,0%);fill-opacity:1;" d="M 44.605469 11.367188 C 46.519531 8.027344 46.621094 4.390625 44.550781 2.324219 C 43.203125 0.972656 41.1875 0.484375 38.878906 0.949219 C 36.683594 1.386719 34.457031 2.644531 32.613281 4.488281 C 31.339844 5.765625 30.355469 7.222656 29.714844 8.726562 C 28.167969 8.644531 26.589844 8.59375 25 8.59375 C 13.257812 8.59375 0.78125 11.058594 0.78125 15.625 L 0.78125 42.171875 C 0.78125 46.75 13.257812 49.21875 25 49.21875 C 36.742188 49.21875 49.21875 46.75 49.21875 42.171875 L 49.21875 15.625 C 49.21875 13.976562 47.65625 12.550781 44.605469 11.367188 Z M 47.65625 15.625 C 47.65625 16.070312 47.324219 16.550781 46.695312 17.03125 C 45.417969 16.292969 43.652344 15.628906 41.5 15.070312 C 41.804688 14.816406 42.097656 14.546875 42.386719 14.261719 C 42.882812 13.765625 43.332031 13.242188 43.730469 12.707031 C 46.191406 13.617188 47.65625 14.691406 47.65625 15.625 Z M 44.53125 33.863281 C 44.0625 34.058594 43.546875 34.253906 42.96875 34.445312 L 42.96875 30.46875 L 38.28125 30.46875 L 38.28125 35.601562 C 37.78125 35.695312 37.261719 35.785156 36.71875 35.867188 L 36.71875 29.625 C 41.515625 28.894531 45.554688 27.691406 47.65625 26.054688 L 47.65625 28.90625 L 44.53125 28.90625 Z M 41.40625 34.90625 C 40.914062 35.039062 40.398438 35.164062 39.84375 35.289062 L 39.84375 32.03125 L 41.40625 32.03125 Z M 44.53125 44.769531 C 44.058594 44.96875 43.539062 45.167969 42.96875 45.355469 L 42.96875 41.40625 L 38.28125 41.40625 L 38.28125 46.535156 C 37.78125 46.628906 37.257812 46.71875 36.71875 46.804688 L 36.71875 40.578125 C 39.816406 40.105469 45.054688 39.039062 47.65625 37.019531 L 47.65625 39.84375 L 44.53125 39.84375 Z M 41.40625 45.824219 C 40.914062 45.957031 40.390625 46.085938 39.84375 46.210938 L 39.84375 42.96875 L 41.40625 42.96875 Z M 10.15625 46.210938 C 9.609375 46.085938 9.085938 45.957031 8.59375 45.824219 L 8.59375 42.96875 L 10.15625 42.96875 Z M 7.03125 41.40625 L 7.03125 45.355469 C 6.460938 45.167969 5.941406 44.972656 5.46875 44.773438 L 5.46875 39.84375 L 2.34375 39.84375 L 2.34375 37.019531 C 4.945312 39.042969 10.183594 40.105469 13.28125 40.578125 L 13.28125 46.804688 C 12.742188 46.722656 12.21875 46.628906 11.71875 46.535156 L 11.71875 41.40625 Z M 10.15625 35.289062 C 9.601562 35.164062 9.085938 35.035156 8.59375 34.90625 L 8.59375 32.03125 L 10.15625 32.03125 Z M 7.03125 30.46875 L 7.03125 34.445312 C 6.453125 34.253906 5.9375 34.058594 5.46875 33.863281 L 5.46875 28.90625 L 2.34375 28.90625 L 2.34375 26.054688 C 4.445312 27.691406 8.484375 28.894531 13.28125 29.625 L 13.28125 35.867188 C 12.738281 35.785156 12.21875 35.695312 11.71875 35.601562 L 11.71875 30.46875 Z M 14.84375 29.84375 C 15.359375 29.910156 15.878906 29.972656 16.40625 30.027344 L 16.40625 47.21875 C 15.871094 47.160156 15.351562 47.097656 14.84375 47.03125 Z M 17.96875 30.171875 C 20.273438 30.367188 22.648438 30.46875 25 30.46875 C 27.351562 30.46875 29.726562 30.367188 32.03125 30.171875 L 32.03125 35.15625 L 17.96875 35.15625 Z M 33.59375 30.027344 C 34.121094 29.972656 34.640625 29.910156 35.15625 29.84375 L 35.15625 47.03125 C 34.648438 47.097656 34.128906 47.160156 33.59375 47.21875 Z M 25 28.90625 C 10.964844 28.90625 2.34375 25.722656 2.34375 23.4375 L 2.34375 18.242188 C 6.046875 21.125 15.75 22.65625 25 22.65625 C 34.25 22.65625 43.953125 21.125 47.65625 18.242188 L 47.65625 23.4375 C 47.65625 25.722656 39.035156 28.90625 25 28.90625 Z M 30.605469 11.058594 C 30.984375 9.164062 32.089844 7.222656 33.71875 5.59375 C 35.347656 3.964844 37.289062 2.859375 39.1875 2.480469 C 39.648438 2.386719 40.09375 2.34375 40.519531 2.34375 C 41.71875 2.34375 42.734375 2.714844 43.449219 3.429688 C 45.53125 5.511719 44.5625 9.875 41.28125 13.15625 C 38.003906 16.433594 33.640625 17.40625 31.554688 15.320312 C 30.585938 14.355469 30.25 12.84375 30.605469 11.058594 Z M 34.476562 17.953125 C 36.171875 17.953125 38.050781 17.367188 39.828125 16.277344 C 41.976562 16.753906 43.769531 17.324219 45.109375 17.960938 C 41.582031 19.621094 34.542969 21.09375 25 21.09375 C 15.460938 21.09375 8.429688 19.621094 4.898438 17.964844 C 8.871094 16.074219 16.625 14.84375 25 14.84375 C 26.496094 14.84375 27.984375 14.886719 29.445312 14.960938 C 29.695312 15.507812 30.023438 16.003906 30.449219 16.425781 C 31.476562 17.457031 32.898438 17.953125 34.476562 17.953125 Z M 25 10.15625 C 26.410156 10.15625 27.8125 10.199219 29.195312 10.265625 C 29.152344 10.429688 29.105469 10.59375 29.074219 10.753906 C 28.886719 11.6875 28.863281 12.566406 28.980469 13.378906 C 27.667969 13.320312 26.335938 13.28125 25 13.28125 C 15.640625 13.28125 7.253906 14.746094 3.308594 17.035156 C 2.675781 16.550781 2.34375 16.070312 2.34375 15.625 C 2.34375 13.339844 10.964844 10.15625 25 10.15625 Z M 2.34375 30.46875 L 3.90625 30.46875 L 3.90625 33.082031 C 2.855469 32.4375 2.34375 31.800781 2.34375 31.25 Z M 2.34375 33.894531 C 4.945312 35.917969 10.183594 36.980469 13.28125 37.453125 L 13.28125 38.996094 C 5.78125 37.824219 2.34375 35.804688 2.34375 34.375 Z M 2.34375 42.171875 L 2.34375 41.40625 L 3.90625 41.40625 L 3.90625 43.992188 C 2.882812 43.371094 2.34375 42.746094 2.34375 42.171875 Z M 17.96875 47.367188 L 17.96875 36.71875 L 32.03125 36.71875 L 32.03125 47.367188 C 29.875 47.550781 27.527344 47.65625 25 47.65625 C 22.472656 47.65625 20.125 47.550781 17.96875 47.367188 Z M 46.09375 43.992188 L 46.09375 41.40625 L 47.65625 41.40625 L 47.65625 42.171875 C 47.65625 42.746094 47.117188 43.371094 46.09375 43.992188 Z M 36.71875 38.992188 L 36.71875 37.453125 C 39.816406 36.980469 45.054688 35.914062 47.65625 33.894531 L 47.65625 34.375 C 47.65625 35.804688 44.21875 37.824219 36.71875 38.992188 Z M 46.09375 33.082031 L 46.09375 30.46875 L 47.65625 30.46875 L 47.65625 31.25 C 47.65625 31.800781 47.144531 32.4375 46.09375 33.082031 Z M 46.09375 33.082031 "/>
<path style=" stroke:none;fill-rule:nonzero;fill:rgb(0%,0%,0%);fill-opacity:1;" d="M 19.53125 32.03125 L 21.09375 32.03125 L 21.09375 33.59375 L 19.53125 33.59375 Z M 19.53125 32.03125 "/>
<path style=" stroke:none;fill-rule:nonzero;fill:rgb(0%,0%,0%);fill-opacity:1;" d="M 22.65625 32.03125 L 24.21875 32.03125 L 24.21875 33.59375 L 22.65625 33.59375 Z M 22.65625 32.03125 "/>
<path style=" stroke:none;fill-rule:nonzero;fill:rgb(0%,0%,0%);fill-opacity:1;" d="M 25.78125 32.03125 L 27.34375 32.03125 L 27.34375 33.59375 L 25.78125 33.59375 Z M 25.78125 32.03125 "/>
<path style=" stroke:none;fill-rule:nonzero;fill:rgb(0%,0%,0%);fill-opacity:1;" d="M 28.90625 32.03125 L 30.46875 32.03125 L 30.46875 33.59375 L 28.90625 33.59375 Z M 28.90625 32.03125 "/>
</g>
</svg>
