<svg xmlns="http://www.w3.org/2000/svg" viewBox="-98 0 512 512.00099"><path d="m59.285156 254.980469c.019532.023437.035156.046875.054688.066406.519531.578125 1.089844 1.074219 1.699218 1.5 25.886719 22.902344 59.886719 36.832031 97.085938 36.832031 37.203125 0 71.207031-13.929687 97.089844-36.832031.609375-.425781 1.183594-.925781 1.699218-1.5.019532-.019531.035157-.042969.054688-.066406 29.382812-26.839844 47.847656-65.449219 47.847656-108.292969 0-80.882812-65.804687-146.6875-146.691406-146.6875-80.882812 0-146.6875 65.804688-146.6875 146.6875 0 42.84375 18.464844 81.453125 47.847656 108.292969zm88.839844-98.292969v116.296875c-24.792969-1.945313-47.605469-11.0625-66.355469-25.273437 23.472657-24.734376 37.644531-56.992188 39.980469-91.023438zm46.378906 0c2.335938 34.03125 16.511719 66.289062 39.980469 91.023438-18.75 14.210937-41.5625 23.328124-66.355469 25.273437v-116.296875zm-127.695312 77.722656c-19.726563-20.527344-32.621094-47.667968-34.976563-77.722656h69.875c-2.316406 29.105469-14.671875 56.625-34.898437 77.722656zm182.636718 0c-20.226562-21.097656-32.582031-48.617187-34.898437-77.722656h69.875c-2.359375 30.054688-15.25 57.195312-34.976563 77.722656zm34.976563-97.722656h-69.875c2.320313-29.074219 14.6875-56.625 34.902344-77.714844 19.722656 20.527344 32.613281 47.664063 34.972656 77.714844zm-49.929687-91.015625c-23.457032 24.730469-37.648438 57.023437-39.988282 91.015625h-26.375v-39.6875c0-5.523438-4.480468-10-10-10-5.523437 0-10 4.476562-10 10v39.6875h-26.378906c-2.339844-33.996094-16.53125-66.285156-39.988281-91.015625 21.246093-16.101563 47.707031-25.671875 76.363281-25.671875 28.660156 0 55.121094 9.570312 76.367188 25.671875zm-167.6875 13.300781c20.214843 21.089844 32.582031 48.640625 34.902343 77.71875h-69.875c2.355469-30.054687 15.25-57.191406 34.972657-77.71875zm0 0"/><path d="m158.128906 67.371094c2.632813 0 5.210938-1.0625 7.070313-2.933594 1.859375-1.859375 2.929687-4.4375 2.929687-7.066406 0-2.632813-1.070312-5.210938-2.929687-7.070313-1.871094-1.859375-4.4375-2.929687-7.070313-2.929687-2.628906 0-5.210937 1.066406-7.070312 2.929687-1.867188 1.859375-2.929688 4.4375-2.929688 7.070313 0 2.628906 1.0625 5.207031 2.929688 7.066406 1.859375 1.871094 4.429687 2.933594 7.070312 2.933594zm0 0"/><path d="m115.429688 324.308594c-1.859376 1.859375-2.929688 4.441406-2.929688 7.070312s1.070312 5.210938 2.929688 7.070313c1.859374 1.859375 4.441406 2.929687 7.070312 2.929687s5.210938-1.070312 7.070312-2.929687c1.859376-1.859375 2.929688-4.441407 2.929688-7.070313 0-2.640625-1.070312-5.210937-2.929688-7.070312-1.859374-1.859375-4.441406-2.929688-7.070312-2.929688s-5.210938 1.070313-7.070312 2.929688zm0 0"/><path d="m316 331.378906c0-5.523437-4.480469-10-10-10h-148c-5.523438 0-10 4.476563-10 10 0 5.519532 4.476562 10 10 10h138v28h-276v-28h62.226562c5.523438 0 10-4.480468 10-10 0-5.523437-4.476562-10-10-10h-72.226562c-5.523438 0-10 4.476563-10 10v48c0 1.140625.199219 2.230469.550781 3.253906.054688.164063.117188.339844.199219.539063.007812.023437.015625.050781.027344.074219.003906.011718.007812.019531.011718.03125 15.179688 37.050781 22.878907 76.136718 22.878907 116.175781v2.542969c0 5.523437 4.476562 10 10 10 3.640625 0 6.820312-1.953125 8.570312-4.863282.046875-.0625.097657-.144531.15625-.25l.058594-.105468c.003906-.007813.007813-.011719.011719-.019532l32.648437-58.304687 32.71875 58.433594c1.832031 3.269531 5.230469 5.113281 8.734375 5.113281 1.652344 0 3.328125-.410156 4.875-1.273438 1.617188-.90625 2.875-2.199218 3.742188-3.691406.03125-.046875.0625-.089844.097656-.148437l32.71875-58.433594 32.71875 58.433594c1.832031 3.269531 5.230469 5.113281 8.734375 5.113281 1.652344 0 3.332031-.410156 4.875-1.273438 1.625-.910156 2.886719-2.210937 3.757813-3.710937.027343-.042969.054687-.082031.082031-.128906l32.71875-58.433594 32.648437 58.304687c.003906.007813.007813.015626.011719.019532l.058594.109375c.011719.015625.023437.027343.035156.046875 1.71875 3.019531 4.964844 5.066406 8.691406 5.066406 5.523438 0 10-4.480469 10-10v-2.542969c0-40.042969 7.699219-79.128906 22.878907-116.175781.003906-.011719.007812-.023438.011718-.035156.007813-.023438.019532-.046875.027344-.070313.035156-.082031.054688-.152343.082031-.230469.425781-1.109374.667969-2.308593.667969-3.566406zm-64.957031 58-10.15625 18.132813-10.152344-18.132813zm-82.890625 0-10.152344 18.132813-10.152344-18.132813zm-82.886719 0-10.15625 18.132813-10.152344-18.132813zm-43.246094 77.234375c-2.648437-26.355469-8.492187-52.195312-17.476562-77.234375h17.492187l21.613282 38.601563zm74.535157 14.914063-29.980469-53.546875 21.613281-38.601563h16.738281l21.613281 38.601563zm82.890624 0-29.984374-53.546875 21.613281-38.601563h16.738281l21.613281 38.601563zm74.519532-92.148438h17.492187c-8.984375 25.039063-14.828125 50.878906-17.476562 77.234375l-21.632813-38.632812zm0 0"/></svg>