<?xml version="1.0" encoding="UTF-8"?>
<svg xmlns="http://www.w3.org/2000/svg" xmlns:xlink="http://www.w3.org/1999/xlink" width="40pt" height="40pt" viewBox="0 0 40 40" version="1.1">
<g id="surface1">
<path style=" stroke:none;fill-rule:nonzero;fill:rgb(0%,0%,0%);fill-opacity:1;" d="M 36.027344 9.203125 L 23.113281 9.203125 C 22.359375 9.203125 21.640625 9.570312 21.207031 10.1875 L 17.886719 14.878906 C 17.734375 15.085938 17.496094 15.210938 17.242188 15.210938 L 16.753906 15.210938 L 16.753906 13.914062 C 16.753906 12.90625 15.933594 12.085938 14.929688 12.085938 L 11.378906 12.085938 C 10.371094 12.085938 9.550781 12.90625 9.550781 13.914062 L 9.550781 15.210938 L 7.328125 15.210938 L 7.328125 14.429688 C 7.328125 13.136719 6.28125 12.085938 4.992188 12.085938 C 3.699219 12.085938 2.652344 13.136719 2.652344 14.429688 L 2.652344 15.210938 L 2.335938 15.210938 C 1.050781 15.210938 0 16.261719 0 17.550781 L 0 36.027344 C 0 38.175781 1.75 39.925781 3.898438 39.925781 L 37.585938 39.925781 C 38.875 39.925781 39.925781 38.875 39.925781 37.585938 L 39.925781 13.101562 C 39.925781 10.949219 38.175781 9.203125 36.027344 9.203125 Z M 11.109375 13.914062 C 11.109375 13.769531 11.230469 13.648438 11.378906 13.648438 L 14.929688 13.648438 C 15.074219 13.648438 15.191406 13.769531 15.191406 13.914062 L 15.191406 15.210938 L 11.109375 15.210938 Z M 4.214844 14.429688 C 4.214844 13.996094 4.558594 13.648438 4.992188 13.648438 C 5.421875 13.648438 5.769531 13.996094 5.769531 14.429688 L 5.769531 15.210938 L 4.214844 15.210938 Z M 38.363281 33.058594 L 33.550781 33.058594 C 34.050781 31.589844 34.308594 30.039062 34.308594 28.460938 C 34.308594 26.269531 33.796875 24.101562 32.835938 22.148438 L 38.363281 22.148438 Z M 1.558594 22.148438 L 7.082031 22.148438 C 6.125 24.101562 5.613281 26.269531 5.613281 28.460938 C 5.613281 30.042969 5.871094 31.589844 6.371094 33.058594 L 1.558594 33.058594 Z M 29.441406 30.367188 L 24.652344 25.578125 C 24.507812 25.429688 24.308594 25.351562 24.101562 25.351562 C 23.894531 25.351562 23.699219 25.429688 23.550781 25.578125 L 18.113281 31.007812 L 15.667969 28.5625 C 15.363281 28.257812 14.867188 28.257812 14.5625 28.5625 L 11.011719 32.117188 C 10.546875 30.988281 10.292969 29.753906 10.292969 28.460938 C 10.292969 23.128906 14.628906 18.789062 19.960938 18.789062 C 25.292969 18.789062 29.632812 23.128906 29.632812 28.460938 C 29.632812 29.109375 29.566406 29.75 29.441406 30.367188 Z M 15.117188 30.21875 L 21.054688 36.15625 C 21.207031 36.308594 21.40625 36.382812 21.605469 36.382812 C 21.808594 36.382812 22.003906 36.308594 22.15625 36.15625 C 22.460938 35.851562 22.460938 35.359375 22.15625 35.050781 L 19.222656 32.113281 L 24.101562 27.230469 L 28.933594 32.066406 C 27.5 35.613281 24.023438 38.128906 19.960938 38.128906 C 16.507812 38.128906 13.46875 36.308594 11.757812 33.574219 Z M 37.585938 38.363281 L 25.25 38.363281 C 28.78125 36.472656 31.191406 32.742188 31.191406 28.460938 C 31.191406 22.269531 26.148438 17.234375 19.960938 17.234375 C 13.769531 17.234375 8.734375 22.269531 8.734375 28.460938 C 8.734375 32.742188 11.140625 36.472656 14.675781 38.363281 L 3.898438 38.363281 C 2.605469 38.363281 1.558594 37.3125 1.558594 36.027344 L 1.558594 34.621094 L 7.003906 34.621094 C 7.3125 35.261719 7.667969 35.886719 8.070312 36.476562 C 8.21875 36.703125 8.464844 36.820312 8.714844 36.820312 C 8.867188 36.820312 9.019531 36.78125 9.152344 36.6875 C 9.507812 36.449219 9.597656 35.960938 9.363281 35.605469 C 8.917969 34.949219 8.539062 34.261719 8.230469 33.542969 C 8.226562 33.539062 8.222656 33.53125 8.214844 33.519531 C 7.53125 31.9375 7.175781 30.21875 7.175781 28.460938 C 7.175781 25.5625 8.175781 22.722656 9.996094 20.460938 C 10.261719 20.125 10.207031 19.632812 9.875 19.367188 C 9.539062 19.09375 9.050781 19.148438 8.777344 19.480469 C 8.492188 19.839844 8.226562 20.207031 7.972656 20.585938 L 1.558594 20.585938 L 1.558594 17.550781 C 1.558594 17.121094 1.910156 16.769531 2.335938 16.769531 L 17.242188 16.769531 C 18.003906 16.769531 18.714844 16.398438 19.15625 15.78125 L 22.476562 11.089844 C 22.621094 10.886719 22.859375 10.761719 23.113281 10.761719 L 36.027344 10.761719 C 37.3125 10.761719 38.363281 11.808594 38.363281 13.101562 L 38.363281 20.585938 L 31.949219 20.585938 C 31.679688 20.183594 31.394531 19.789062 31.085938 19.410156 C 30.816406 19.078125 30.324219 19.027344 29.988281 19.296875 C 29.65625 19.570312 29.605469 20.0625 29.878906 20.394531 C 31.730469 22.667969 32.75 25.535156 32.75 28.460938 C 32.75 30.222656 32.390625 31.945312 31.703125 33.535156 C 31.703125 33.535156 31.699219 33.539062 31.699219 33.542969 C 31.390625 34.246094 31.015625 34.9375 30.578125 35.585938 C 30.335938 35.941406 30.429688 36.425781 30.789062 36.667969 C 30.925781 36.757812 31.074219 36.800781 31.222656 36.800781 C 31.472656 36.800781 31.71875 36.679688 31.875 36.457031 C 32.269531 35.867188 32.617188 35.253906 32.917969 34.621094 L 38.363281 34.621094 L 38.363281 37.585938 C 38.363281 38.015625 38.015625 38.363281 37.585938 38.363281 Z M 37.585938 38.363281 "/>
<path style=" stroke:none;fill-rule:nonzero;fill:rgb(0%,0%,0%);fill-opacity:1;" d="M 36.3125 14.429688 C 36.3125 13.136719 35.261719 12.085938 33.96875 12.085938 L 26.980469 12.085938 C 25.6875 12.085938 24.640625 13.136719 24.640625 14.429688 C 24.640625 15.71875 25.6875 16.769531 26.980469 16.769531 L 33.96875 16.769531 C 35.261719 16.769531 36.3125 15.71875 36.3125 14.429688 Z M 34.75 14.429688 C 34.75 14.859375 34.398438 15.210938 33.96875 15.210938 L 31.253906 15.210938 L 31.253906 13.648438 L 33.96875 13.648438 C 34.398438 13.648438 34.75 13.996094 34.75 14.429688 Z M 26.199219 14.429688 C 26.199219 13.996094 26.550781 13.648438 26.980469 13.648438 L 29.695312 13.648438 L 29.695312 15.210938 L 26.980469 15.210938 C 26.550781 15.210938 26.199219 14.859375 26.199219 14.429688 Z M 26.199219 14.429688 "/>
<path style=" stroke:none;fill-rule:nonzero;fill:rgb(0%,0%,0%);fill-opacity:1;" d="M 18.894531 21.183594 C 17.605469 21.183594 16.554688 22.230469 16.554688 23.523438 C 16.554688 24.8125 17.605469 25.863281 18.894531 25.863281 C 20.1875 25.863281 21.238281 24.8125 21.238281 23.523438 C 21.238281 22.230469 20.1875 21.183594 18.894531 21.183594 Z M 18.894531 24.300781 C 18.46875 24.300781 18.117188 23.953125 18.117188 23.523438 C 18.117188 23.089844 18.46875 22.746094 18.894531 22.746094 C 19.328125 22.746094 19.675781 23.089844 19.675781 23.523438 C 19.675781 23.953125 19.328125 24.300781 18.894531 24.300781 Z M 18.894531 24.300781 "/>
<path style=" stroke:none;fill-rule:nonzero;fill:rgb(0%,0%,0%);fill-opacity:1;" d="M 30.410156 5.328125 C 30.839844 5.328125 31.1875 4.980469 31.1875 4.546875 L 31.1875 0.78125 C 31.1875 0.351562 30.839844 0 30.410156 0 C 29.980469 0 29.632812 0.351562 29.632812 0.78125 L 29.632812 4.546875 C 29.632812 4.980469 29.980469 5.328125 30.410156 5.328125 Z M 30.410156 5.328125 "/>
<path style=" stroke:none;fill-rule:nonzero;fill:rgb(0%,0%,0%);fill-opacity:1;" d="M 30.410156 6.472656 C 30.203125 6.472656 30.003906 6.554688 29.859375 6.699219 C 29.710938 6.84375 29.632812 7.046875 29.632812 7.25 C 29.632812 7.460938 29.710938 7.65625 29.859375 7.800781 C 30.003906 7.949219 30.203125 8.03125 30.410156 8.03125 C 30.613281 8.03125 30.816406 7.949219 30.960938 7.800781 C 31.105469 7.65625 31.1875 7.460938 31.1875 7.25 C 31.1875 7.046875 31.105469 6.84375 30.960938 6.699219 C 30.816406 6.554688 30.613281 6.472656 30.410156 6.472656 Z M 30.410156 6.472656 "/>
<path style=" stroke:none;fill-rule:nonzero;fill:rgb(0%,0%,0%);fill-opacity:1;" d="M 25.789062 7.070312 C 25.9375 7.21875 26.136719 7.292969 26.339844 7.292969 C 26.539062 7.292969 26.734375 7.21875 26.886719 7.070312 C 27.191406 6.761719 27.191406 6.269531 26.886719 5.960938 L 24.269531 3.34375 C 23.964844 3.042969 23.476562 3.042969 23.171875 3.34375 C 22.863281 3.652344 22.863281 4.144531 23.171875 4.449219 Z M 25.789062 7.070312 "/>
<path style=" stroke:none;fill-rule:nonzero;fill:rgb(0%,0%,0%);fill-opacity:1;" d="M 34.53125 7.222656 C 34.730469 7.222656 34.925781 7.148438 35.085938 6.996094 L 37.628906 4.449219 C 37.929688 4.144531 37.929688 3.65625 37.628906 3.347656 C 37.320312 3.042969 36.828125 3.042969 36.527344 3.347656 L 33.980469 5.894531 C 33.675781 6.199219 33.675781 6.691406 33.980469 6.996094 C 34.132812 7.148438 34.328125 7.222656 34.53125 7.222656 Z M 34.53125 7.222656 "/>
</g>
</svg>
