<svg xmlns="http://www.w3.org/2000/svg" viewBox="0 0 512 512"><path d="m462 118h-165.578125c-9.714844 0-18.867187 4.730469-24.484375 12.660156l-42.617188 60.171875c-1.875 2.644531-4.925781 4.21875-8.164062 4.21875h-6.320312v-16.613281c0-12.898438-10.496094-23.394531-23.398438-23.394531h-45.542969c-12.898437 0-23.394531 10.496093-23.394531 23.394531v16.613281h-28.5v-10.007812c0-16.542969-13.457031-30-30-30s-30 13.457031-30 30v10.007812h-4c-16.542969 0-30 13.460938-30 30v236.949219c0 27.570312 22.429688 50 50 50h432c16.542969 0 30-13.457031 30-30v-314c0-27.570312-22.429688-50-50-50zm-319.5 60.4375c0-1.871094 1.523438-3.394531 3.394531-3.394531h45.542969c1.871094 0 3.398438 1.523437 3.398438 3.394531v16.605469h-52.335938zm-88.5 6.605469c0-5.515625 4.484375-10 10-10s10 4.484375 10 10v10h-20zm438 238.957031h-61.703125c6.398437-18.859375 9.703125-38.742188 9.703125-59 0-28.171875-6.5625-55.925781-18.867188-81h70.867188zm-472-140h70.871094c-12.304688 25.082031-18.871094 52.847656-18.871094 81 0 20.261719 3.304688 40.140625 9.703125 59h-61.703125zm357.578125 105.433594-61.433594-61.429688c-1.875-1.875-4.417969-2.929687-7.070312-2.929687-2.652344 0-5.195313 1.054687-7.070313 2.929687l-69.679687 69.679688-31.394531-31.398438c-3.90625-3.902344-10.238282-3.902344-14.144532 0l-45.582031 45.582032c-5.925781-14.46875-9.203125-30.289063-9.203125-46.867188 0-68.375 55.625-124 124-124s124 55.625 124 124c0 8.363281-.835938 16.53125-2.421875 24.433594zm-183.722656-1.933594 76.15625 76.15625c1.953125 1.953125 4.511719 2.929688 7.070312 2.929688 2.558594 0 5.117188-.976563 7.070313-2.929688 3.90625-3.90625 3.90625-10.238281 0-14.144531l-37.6875-37.6875 62.609375-62.609375 61.988281 61.992187c-18.359375 45.554688-63.011719 77.792969-115.0625 77.792969-44.316406 0-83.273438-23.375-105.203125-58.4375zm288.144531 104.5h-158.183594c45.300782-24.289062 76.183594-72.101562 76.183594-127 0-79.402344-64.597656-144-144-144s-144 64.597656-144 144c0 54.898438 30.882812 102.710938 76.183594 127h-138.183594c-16.542969 0-30-13.457031-30-30v-18h69.828125c3.925781 8.21875 8.480469 16.179688 13.644531 23.820312 1.933594 2.855469 5.085938 4.398438 8.292969 4.398438 1.929687 0 3.875-.558594 5.59375-1.71875 4.574219-3.09375 5.777344-9.308594 2.683594-13.882812-5.679688-8.398438-10.527344-17.234376-14.519531-26.402344-.039063-.105469-.085938-.203125-.132813-.304688-8.8125-20.363281-13.390625-42.371094-13.390625-64.910156 0-37.183594 12.84375-73.625 36.160156-102.613281 3.460938-4.300781 2.777344-10.597657-1.523437-14.058594-4.304688-3.460937-10.597657-2.78125-14.0625 1.523437-3.664063 4.554688-7.089844 9.285157-10.289063 14.148438h-82.285156v-38.949219c0-5.515625 4.484375-10 10-10h191.15625c9.714844 0 18.867188-4.730469 24.480469-12.660156l42.621093-60.171875c1.871094-2.644531 4.921876-4.21875 8.160157-4.21875h165.582031c16.542969 0 30 13.457031 30 30v96h-82.285156c-3.414063-5.195312-7.089844-10.230469-11.039063-15.074219-3.488281-4.28125-9.789062-4.921875-14.070312-1.433593-4.28125 3.488281-4.921875 9.789062-1.433594 14.070312 23.75 29.140625 36.828125 65.875 36.828125 103.4375 0 22.585938-4.601562 44.640625-13.453125 65.042969-.015625.027343-.027344.058593-.039063.085937-3.957031 9.101563-8.753906 17.878906-14.371093 26.226563-3.085938 4.578125-1.871094 10.792969 2.707031 13.878906 1.714844 1.152344 3.65625 1.707031 5.578125 1.707031 3.214844 0 6.371094-1.550781 8.304687-4.417968 5.082032-7.546876 9.566407-15.410157 13.441407-23.523438h69.832031v38c0 5.515625-4.484375 10-10 10zm0 0"/><path d="m465.667969 185.042969c0-16.542969-13.457031-30-30-30h-89.667969c-16.542969 0-30 13.457031-30 30s13.457031 30 30 30h89.667969c16.542969 0 30-13.460938 30-30zm-20 0c0 5.511719-4.488281 10-10 10h-34.835938v-20h34.835938c5.511719 0 10 4.484375 10 10zm-109.667969 0c0-5.515625 4.484375-10 10-10h34.832031v20h-34.832031c-5.515625 0-10-4.488281-10-10zm0 0"/><path d="m242.332031 271.667969c-16.542969 0-30 13.457031-30 30s13.457031 30 30 30 30-13.457031 30-30-13.457031-30-30-30zm0 40c-5.511719 0-10-4.488281-10-10 0-5.515625 4.488281-10 10-10 5.515625 0 10 4.484375 10 10 0 5.511719-4.484375 10-10 10zm0 0"/><path d="m389.988281 68.332031c5.523438 0 10-4.476562 10-10v-48.332031c0-5.523438-4.476562-10-10-10-5.519531 0-10 4.476562-10 10v48.332031c0 5.523438 4.480469 10 10 10zm0 0"/><path d="m389.988281 83c-2.628906 0-5.210937 1.070312-7.066406 2.929688-1.863281 1.859374-2.933594 4.441406-2.933594 7.070312s1.070313 5.210938 2.933594 7.070312c1.855469 1.859376 4.4375 2.929688 7.066406 2.929688 2.632813 0 5.210938-1.070312 7.070313-2.929688 1.859375-1.859374 2.929687-4.441406 2.929687-7.070312s-1.066406-5.210938-2.929687-7.070312c-1.859375-1.859376-4.4375-2.929688-7.070313-2.929688zm0 0"/><path d="m330.691406 90.613281c1.953125 1.953125 4.511719 2.929688 7.070313 2.929688 2.558593 0 5.117187-.976563 7.070312-2.929688 3.90625-3.90625 3.90625-10.238281 0-14.144531l-33.5625-33.5625c-3.90625-3.902344-10.234375-3.902344-14.140625 0-3.90625 3.90625-3.90625 10.238281 0 14.144531zm0 0"/><path d="m442.835938 92.652344c2.5625 0 5.121093-.976563 7.074218-2.929688l32.628906-32.652344c3.90625-3.90625 3.902344-10.234374-.003906-14.140624-3.90625-3.902344-10.234375-3.902344-14.140625.003906l-32.632812 32.648437c-3.902344 3.90625-3.902344 10.238281.003906 14.144531 1.957031 1.949219 4.511719 2.925782 7.070313 2.925782zm0 0"/></svg>