<?xml version="1.0" encoding="UTF-8"?>
<svg xmlns="http://www.w3.org/2000/svg" xmlns:xlink="http://www.w3.org/1999/xlink" width="40pt" height="39pt" viewBox="0 0 40 39" version="1.1">
<g id="surface1">
<path style=" stroke:none;fill-rule:nonzero;fill:rgb(0%,0%,0%);fill-opacity:1;" d="M 21.976562 35.269531 L 21.976562 29.96875 C 21.976562 29.546875 21.628906 29.207031 21.195312 29.207031 L 12.613281 29.207031 C 12.179688 29.207031 11.832031 29.546875 11.832031 29.96875 L 11.832031 35.269531 C 11.832031 35.691406 12.179688 36.035156 12.613281 36.035156 L 21.195312 36.035156 C 21.628906 36.035156 21.976562 35.691406 21.976562 35.269531 Z M 20.414062 34.507812 L 13.394531 34.507812 L 13.394531 30.734375 L 20.414062 30.734375 Z M 20.414062 34.507812 "/>
<path style=" stroke:none;fill-rule:nonzero;fill:rgb(0%,0%,0%);fill-opacity:1;" d="M 27.488281 36.035156 L 36.074219 36.035156 C 36.503906 36.035156 36.855469 35.691406 36.855469 35.269531 L 36.855469 29.96875 C 36.855469 29.546875 36.503906 29.207031 36.074219 29.207031 L 27.488281 29.207031 C 27.054688 29.207031 26.707031 29.546875 26.707031 29.96875 L 26.707031 35.269531 C 26.707031 35.691406 27.054688 36.035156 27.488281 36.035156 Z M 28.269531 30.734375 L 35.292969 30.734375 L 35.292969 34.507812 L 28.269531 34.507812 Z M 28.269531 30.734375 "/>
<path style=" stroke:none;fill-rule:nonzero;fill:rgb(0%,0%,0%);fill-opacity:1;" d="M 3.277344 23.894531 C 3.421875 23.75 3.507812 23.554688 3.507812 23.355469 C 3.507812 23.152344 3.421875 22.957031 3.277344 22.8125 C 3.132812 22.671875 2.929688 22.589844 2.726562 22.589844 C 2.519531 22.589844 2.320312 22.671875 2.171875 22.8125 C 2.027344 22.957031 1.945312 23.152344 1.945312 23.355469 C 1.945312 23.554688 2.027344 23.75 2.171875 23.894531 C 2.320312 24.035156 2.519531 24.117188 2.726562 24.117188 C 2.929688 24.117188 3.132812 24.035156 3.277344 23.894531 Z M 3.277344 23.894531 "/>
<path style=" stroke:none;fill-rule:nonzero;fill:rgb(0%,0%,0%);fill-opacity:1;" d="M 36.644531 24.261719 C 36.792969 24.121094 36.875 23.921875 36.875 23.722656 C 36.875 23.523438 36.792969 23.324219 36.644531 23.183594 C 36.5 23.039062 36.300781 22.960938 36.09375 22.960938 C 35.886719 22.960938 35.6875 23.039062 35.542969 23.183594 C 35.394531 23.324219 35.3125 23.519531 35.3125 23.722656 C 35.3125 23.921875 35.394531 24.121094 35.542969 24.261719 C 35.6875 24.402344 35.886719 24.484375 36.09375 24.484375 C 36.300781 24.484375 36.5 24.402344 36.644531 24.261719 Z M 36.644531 24.261719 "/>
<path style=" stroke:none;fill-rule:nonzero;fill:rgb(0%,0%,0%);fill-opacity:1;" d="M 40 13.09375 C 40 11.265625 38.476562 9.773438 36.601562 9.773438 L 34.53125 9.773438 C 33.238281 9.773438 32.1875 10.800781 32.1875 12.0625 C 32.1875 13.328125 33.238281 14.355469 34.53125 14.355469 L 35.3125 14.355469 L 35.3125 20.828125 C 35.3125 21.25 35.664062 21.589844 36.09375 21.589844 C 36.523438 21.589844 36.875 21.25 36.875 20.828125 L 36.875 13.589844 C 36.875 13.167969 36.523438 12.828125 36.09375 12.828125 L 34.53125 12.828125 C 34.101562 12.828125 33.75 12.484375 33.75 12.0625 C 33.75 11.644531 34.101562 11.300781 34.53125 11.300781 L 36.601562 11.300781 C 37.613281 11.300781 38.4375 12.105469 38.4375 13.09375 L 38.4375 26.132812 L 25.351562 26.132812 L 27.609375 10.644531 C 27.640625 10.425781 27.574219 10.203125 27.425781 10.039062 C 27.285156 9.875 27.078125 9.78125 26.859375 9.777344 C 27.058594 9.253906 27.082031 8.667969 26.910156 8.09375 C 26.707031 7.417969 26.265625 6.878906 25.6875 6.550781 C 25.816406 6.261719 25.890625 5.941406 25.890625 5.601562 C 25.890625 4.464844 25.0625 3.503906 23.945312 3.289062 C 23.308594 2.253906 22.03125 1.746094 20.839844 2.039062 C 20.503906 0.886719 19.417969 0.0390625 18.128906 0.0390625 C 16.824219 0.0390625 15.71875 0.914062 15.402344 2.09375 C 14.867188 2.226562 14.390625 2.511719 14.023438 2.894531 C 13.886719 2.761719 13.738281 2.640625 13.570312 2.535156 C 12.941406 2.128906 12.191406 1.988281 11.453125 2.136719 C 10.902344 2.246094 10.40625 2.511719 10.019531 2.894531 C 9.652344 2.511719 9.175781 2.226562 8.640625 2.09375 C 8.324219 0.914062 7.222656 0.0390625 5.914062 0.0390625 C 4.363281 0.0390625 3.097656 1.273438 3.097656 2.789062 C 3.097656 3.011719 3.125 3.230469 3.175781 3.441406 C 2.324219 3.804688 1.726562 4.636719 1.726562 5.601562 C 1.726562 5.933594 1.796875 6.253906 1.925781 6.542969 C 1.347656 6.855469 0.902344 7.375 0.671875 8.039062 C 0.46875 8.625 0.472656 9.230469 0.65625 9.785156 C 0.476562 9.8125 0.3125 9.902344 0.191406 10.039062 C 0.0429688 10.207031 -0.0234375 10.429688 0.0078125 10.648438 L 1.429688 20.027344 C 1.496094 20.441406 1.890625 20.730469 2.320312 20.667969 C 2.746094 20.605469 3.039062 20.21875 2.976562 19.800781 L 1.6875 11.300781 L 9.226562 11.300781 C 8.882812 11.820312 8.683594 12.433594 8.683594 13.09375 L 8.683594 35.292969 C 8.683594 36.148438 8.976562 36.941406 9.46875 37.582031 L 6.304688 37.582031 C 5.945312 37.582031 5.632812 37.320312 5.582031 36.96875 L 3.960938 26.300781 C 3.898438 25.886719 3.503906 25.597656 3.074219 25.660156 C 2.648438 25.722656 2.355469 26.109375 2.417969 26.527344 L 4.035156 37.195312 C 4.203125 38.285156 5.175781 39.105469 6.304688 39.105469 L 36.09375 39.105469 C 38.246094 39.105469 40 37.394531 40 35.292969 Z M 23.773438 26.132812 L 18.933594 26.132812 L 18.933594 11.300781 L 25.9375 11.300781 Z M 4.136719 4.773438 C 4.332031 4.773438 4.523438 4.699219 4.667969 4.566406 L 4.769531 4.476562 C 5.054688 4.214844 5.101562 3.796875 4.878906 3.484375 C 4.738281 3.28125 4.660156 3.039062 4.660156 2.789062 C 4.660156 2.113281 5.222656 1.566406 5.914062 1.566406 C 6.605469 1.566406 7.167969 2.113281 7.167969 2.789062 C 7.167969 3.210938 7.519531 3.554688 7.949219 3.554688 C 7.996094 3.554688 8.039062 3.550781 8.082031 3.542969 C 8.710938 3.605469 9.203125 4.128906 9.203125 4.765625 L 9.207031 4.800781 C 9.203125 4.828125 9.203125 4.859375 9.207031 4.886719 C 9.214844 5.304688 9.5625 5.632812 9.988281 5.632812 L 9.996094 5.632812 C 10.425781 5.628906 10.769531 5.285156 10.769531 4.867188 L 10.769531 4.808594 C 10.773438 4.578125 10.84375 4.351562 10.976562 4.15625 C 11.160156 3.882812 11.441406 3.699219 11.769531 3.632812 C 12.097656 3.566406 12.433594 3.628906 12.710938 3.808594 C 12.992188 3.988281 13.183594 4.265625 13.25 4.585938 C 13.320312 4.90625 13.253906 5.234375 13.070312 5.503906 C 12.832031 5.859375 12.933594 6.332031 13.292969 6.5625 C 13.652344 6.796875 14.136719 6.699219 14.375 6.34375 C 14.691406 5.875 14.851562 5.328125 14.839844 4.777344 C 14.839844 4.769531 14.839844 4.765625 14.839844 4.761719 C 14.839844 4.128906 15.332031 3.605469 15.964844 3.542969 C 16.007812 3.550781 16.050781 3.554688 16.09375 3.554688 C 16.523438 3.554688 16.875 3.210938 16.875 2.789062 C 16.875 2.113281 17.4375 1.566406 18.128906 1.566406 C 18.820312 1.566406 19.382812 2.113281 19.382812 2.789062 C 19.382812 3.039062 19.308594 3.28125 19.164062 3.484375 C 18.945312 3.796875 18.992188 4.21875 19.273438 4.476562 L 19.375 4.566406 C 19.523438 4.699219 19.710938 4.773438 19.910156 4.773438 C 20.375 4.773438 20.757812 5.144531 20.757812 5.601562 C 20.757812 6.058594 20.375 6.429688 19.910156 6.429688 C 19.476562 6.429688 19.128906 6.769531 19.128906 7.191406 C 19.128906 7.613281 19.476562 7.953125 19.910156 7.953125 C 21.238281 7.953125 22.320312 6.898438 22.320312 5.601562 C 22.320312 4.726562 21.828125 3.964844 21.101562 3.558594 C 21.710938 3.339844 22.40625 3.617188 22.675781 4.203125 C 22.714844 4.289062 22.765625 4.367188 22.828125 4.4375 C 23.003906 4.636719 23.261719 4.757812 23.535156 4.773438 C 23.980469 4.800781 24.332031 5.164062 24.332031 5.601562 C 24.332031 5.886719 24.183594 6.136719 23.957031 6.285156 C 23.929688 6.300781 23.898438 6.316406 23.871094 6.335938 C 23.753906 6.394531 23.621094 6.429688 23.484375 6.429688 C 23.050781 6.429688 22.703125 6.769531 22.703125 7.191406 C 22.703125 7.613281 23.050781 7.957031 23.484375 7.957031 C 23.84375 7.957031 24.183594 7.878906 24.488281 7.738281 C 25.144531 7.816406 25.359375 8.351562 25.410156 8.523438 C 25.523438 8.902344 25.46875 9.425781 24.984375 9.773438 L 10.445312 9.773438 C 11.046875 8.414062 10.453125 6.808594 9.078125 6.148438 C 8.691406 5.960938 8.222656 6.117188 8.03125 6.496094 C 7.839844 6.875 8 7.332031 8.386719 7.515625 C 9.035156 7.828125 9.304688 8.597656 8.984375 9.230469 C 8.867188 9.460938 8.6875 9.648438 8.460938 9.773438 L 2.425781 9.773438 C 2.042969 9.386719 2.027344 8.886719 2.152344 8.53125 C 2.210938 8.359375 2.453125 7.816406 3.128906 7.738281 C 3.433594 7.878906 3.777344 7.957031 4.136719 7.957031 C 4.566406 7.957031 4.917969 7.613281 4.917969 7.191406 C 4.917969 6.769531 4.566406 6.429688 4.136719 6.429688 C 3.996094 6.429688 3.863281 6.394531 3.746094 6.335938 C 3.71875 6.316406 3.691406 6.300781 3.660156 6.285156 C 3.433594 6.136719 3.289062 5.886719 3.289062 5.601562 C 3.289062 5.144531 3.667969 4.773438 4.136719 4.773438 Z M 17.371094 11.300781 L 17.371094 26.132812 L 13.371094 26.132812 L 13.371094 14.355469 L 14.152344 14.355469 C 15.445312 14.355469 16.496094 13.328125 16.496094 12.0625 C 16.496094 11.796875 16.449219 11.539062 16.363281 11.300781 Z M 11.808594 13.589844 L 11.808594 26.132812 L 10.246094 26.132812 L 10.246094 13.09375 C 10.246094 12.105469 11.070312 11.300781 12.082031 11.300781 L 14.152344 11.300781 C 14.585938 11.300781 14.933594 11.644531 14.933594 12.0625 C 14.933594 12.484375 14.585938 12.828125 14.152344 12.828125 L 12.589844 12.828125 C 12.160156 12.828125 11.808594 13.167969 11.808594 13.589844 Z M 12.589844 37.582031 C 11.300781 37.582031 10.246094 36.554688 10.246094 35.292969 L 10.246094 27.660156 L 23.5625 27.660156 L 23.5625 37.582031 Z M 38.4375 35.292969 C 38.4375 36.554688 37.386719 37.582031 36.09375 37.582031 L 25.125 37.582031 L 25.125 27.660156 L 38.4375 27.660156 Z M 38.4375 35.292969 "/>
</g>
</svg>
