<svg xmlns="http://www.w3.org/2000/svg" viewBox="0 0 511.99933 511"><path d="m281.320312 462.140625v-69.453125c0-5.523438-4.476562-10-10-10h-109.886718c-5.523438 0-10 4.476562-10 10v69.453125c0 5.523437 4.476562 10 10 10h109.886718c5.523438 0 10-4.476563 10-10zm-20-10h-89.886718v-49.453125h89.886718zm0 0"/><path d="m351.847656 472.140625h109.886719c5.523437 0 10-4.476563 10-10v-69.453125c0-5.523438-4.476563-10-10-10h-109.886719c-5.523437 0-10 4.476562-10 10v69.453125c0 5.523437 4.476563 10 10 10zm10-69.453125h89.886719v49.453125h-89.886719zm0 0"/><path d="m41.960938 313.066406c1.859374-1.871094 2.929687-4.441406 2.929687-7.070312 0-2.640625-1.070313-5.210938-2.929687-7.082032-1.863282-1.859374-4.441407-2.929687-7.070313-2.929687-2.632813 0-5.210937 1.070313-7.070313 2.929687-1.859374 1.871094-2.929687 4.441407-2.929687 7.082032 0 2.628906 1.070313 5.199218 2.929687 7.070312 1.859376 1.859375 4.4375 2.929688 7.070313 2.929688 2.628906 0 5.207031-1.070313 7.070313-2.929688zm0 0"/><path d="m469.070312 317.894531c1.859376-1.859375 2.929688-4.4375 2.929688-7.070312 0-2.628907-1.070312-5.207031-2.929688-7.070313-1.859374-1.867187-4.441406-2.929687-7.070312-2.929687s-5.210938 1.0625-7.070312 2.929687c-1.859376 1.863282-2.929688 4.433594-2.929688 7.070313 0 2.632812 1.070312 5.210937 2.929688 7.070312 1.859374 1.859375 4.441406 2.929688 7.070312 2.929688s5.210938-1.070313 7.070312-2.929688zm0 0"/><path d="m512 171.574219c0-23.988281-19.515625-43.5-43.5-43.5h-26.5c-16.542969 0-30 13.457031-30 30 0 16.539062 13.457031 30 30 30h10v84.832031c0 5.519531 4.476562 10 10 10s10-4.480469 10-10v-94.832031c0-5.523438-4.476562-10-10-10h-20c-5.515625 0-10-4.488281-10-10 0-5.515625 4.484375-10 10-10h26.5c12.957031 0 23.5 10.539062 23.5 23.5v170.847656h-167.5l28.90625-202.9375c.40625-2.871094-.449219-5.773437-2.347656-7.964844-1.832032-2.109375-4.457032-3.34375-7.242188-3.429687 2.511719-6.859375 2.839844-14.515625.628906-22.058594-2.589843-8.828125-8.246093-15.886719-15.664062-20.175781 1.691406-3.816407 2.640625-8.03125 2.640625-12.46875 0-14.910157-10.640625-27.484375-24.898437-30.269531-8.164063-13.59375-24.507813-20.246094-39.78125-16.386719-4.292969-15.117188-18.210938-26.226563-34.683594-26.226563-16.730469 0-30.835938 11.449219-34.886719 26.929688-6.882813 1.734375-12.980469 5.457031-17.652344 10.515625-1.75-1.757813-3.683593-3.355469-5.804687-4.75-8.042969-5.296875-17.667969-7.144531-27.101563-5.203125-7.078125 1.457031-13.410156 4.914062-18.371093 9.949218-4.671876-5.058593-10.769532-8.777343-17.648438-10.511718-4.050781-15.480469-18.15625-26.933594-34.882812-26.933594-19.882813 0-36.058594 16.175781-36.058594 36.058594 0 2.898437.34375 5.757812 1.011718 8.523437-10.921874 4.75-18.582031 15.648438-18.582031 28.304688 0 4.382812.925781 8.550781 2.582031 12.332031-7.398437 4.128906-13.121093 10.9375-16.066406 19.613281-2.59375 7.652344-2.539062 15.632813-.179687 22.882813-2.3125.371094-4.441407 1.527344-5.988281 3.324218-1.898438 2.203126-2.75 5.125-2.320313 8l18.207031 122.855469c.8125 5.460938 5.898438 9.242188 11.359375 8.425781 5.460938-.8125 9.234375-5.898437 8.425781-11.359374l-16.511718-111.386719h5.609375.042969.039062 90.808594c-4.371094 6.78125-6.921875 14.847656-6.921875 23.5v180.847656 109.984375c0 11.246094 3.734375 21.636719 10.027343 30h-40.484374c-4.609376 0-8.59375-3.4375-9.269532-7.996094l-20.71875-139.777344c-.808594-5.464843-5.890625-9.242187-11.355468-8.425781-5.464844.808594-9.234376 5.894531-8.425782 11.355469l20.71875 139.78125c2.117188 14.285156 14.605469 25.0625 29.050782 25.0625h381.289062c27.570312 0 50-22.429688 50-50zm-207.703125 170.847656h-61.960937v-194.347656h80.65625.015624.027344 8.945313zm-251.371094-279.882813c2.535157 0 4.972657-.960937 6.824219-2.6875l1.304688-1.21875c3.625-3.382812 4.226562-8.902343 1.417968-12.984374-1.84375-2.679688-2.820312-5.820313-2.820312-9.089844 0-8.855469 7.203125-16.058594 16.058594-16.058594 8.851562 0 16.054687 7.203125 16.054687 16.058594 0 5.519531 4.480469 10 10 10 .566406 0 1.121094-.050782 1.664063-.140625 8.074218.835937 14.394531 7.683593 14.394531 16.015625l.003906.472656c-.003906.375-.003906.75.003906 1.128906.113281 5.445313 4.5625 9.789063 9.996094 9.789063h.128906c5.488281-.066407 9.894531-4.550781 9.875-10.039063l-.003906-.777344c.050781-3.035156.960937-5.972656 2.648437-8.53125 2.359376-3.582031 5.972657-6.03125 10.171876-6.898437 4.199218-.859375 8.484374-.039063 12.070312 2.320313 3.582031 2.359374 6.03125 5.972656 6.894531 10.171874.863281 4.203126.042969 8.488282-2.316406 12.070313-3.039063 4.609375-1.761719 10.8125 2.847656 13.851563 4.613281 3.039062 10.816407 1.761718 13.855469-2.851563 4.074219-6.1875 6.097656-13.3125 5.933594-20.5625.003906-.066406.011718-.125.011718-.1875 0-8.292969 6.320313-15.136719 14.394532-15.972656.539062.089843 1.09375.140625 1.660156.140625 5.523438 0 10-4.480469 10-10 0-8.855469 7.207031-16.058594 16.058594-16.058594 8.855468 0 16.058594 7.203125 16.058594 16.058594 0 3.269531-.976563 6.410156-2.820313 9.089844-2.8125 4.078124-2.207031 9.605468 1.417969 12.984374l1.308594 1.21875c1.851562 1.726563 4.289062 2.6875 6.820312 2.6875 5.980469 0 10.84375 4.867188 10.84375 10.847657s-4.863281 10.84375-10.84375 10.84375c-5.523438 0-10 4.480469-10 10 0 5.523437 4.476562 10 10 10 17.007812 0 30.84375-13.835938 30.84375-30.84375 0-11.460938-6.292969-21.460938-15.589844-26.78125 7.8125-2.859375 16.699219.792969 20.144532 8.445312.507812 1.132813 1.171874 2.179688 1.976562 3.105469 2.246094 2.597656 5.527344 4.203125 9.007812 4.402344 5.71875.328125 10.199219 5.085937 10.199219 10.828125 0 3.722656-1.886719 7.015625-4.753906 8.96875-.390625.199219-.773437.417969-1.132813.664062-1.488281.769531-3.171874 1.214844-4.957031 1.214844-5.523437 0-10 4.476563-10 10 0 5.519531 4.476563 10 10 10 4.59375 0 8.953125-1.019531 12.878907-2.828125 8.410156 1.003906 11.144531 8.035156 11.796874 10.253906 1.457032 4.972656.765626 11.859375-5.457031 16.414063h-186.082031c7.699219-17.847657.09375-38.859375-17.539062-47.53125-4.953126-2.4375-10.949219-.394531-13.386719 4.558593-2.4375 4.957032-.394531 10.949219 4.5625 13.390626 8.292969 4.078124 11.722656 14.144531 7.644531 22.4375-1.5 3.042968-3.808594 5.488281-6.714844 7.144531h-77.238281c-4.902344-5.066407-5.097656-11.625-3.507813-16.316407.761719-2.242187 3.863282-9.347656 12.503907-10.351562 3.925781 1.808594 8.285156 2.828125 12.882812 2.828125 5.523438 0 10-4.476563 10-10s-4.476562-10-10-10c-1.789062 0-3.472656-.441406-4.960937-1.210937-.359375-.246094-.738282-.464844-1.128906-.667969-2.867188-1.953125-4.753907-5.242188-4.753907-8.96875 0-5.980469 4.863281-10.847657 10.84375-10.847657zm169.410157 85.535157v194.347656h-51.167969v-154.347656h10c16.542969 0 30-13.457031 30-30 0-3.503907-.609375-6.871094-1.71875-10zm-71.167969 30v164.347656h-20v-170.847656c0-12.957031 10.542969-23.5 23.5-23.5h26.5c5.515625 0 10 4.488281 10 10 0 5.515625-4.484375 10-10 10h-20c-5.523438 0-10 4.476562-10 10zm10 314.332031c-16.542969 0-30-13.457031-30-30v-99.984375h170.417969v129.984375zm330.832031-30c0 16.542969-13.457031 30-30 30h-140.414062v-129.984375h170.414062zm0 0"/></svg>