<?xml version="1.0" encoding="UTF-8"?>
<svg xmlns="http://www.w3.org/2000/svg" xmlns:xlink="http://www.w3.org/1999/xlink" width="40pt" height="40pt" viewBox="0 0 40 40" version="1.1">
<g id="surface1">
<path style=" stroke:none;fill-rule:nonzero;fill:rgb(0%,0%,0%);fill-opacity:1;" d="M 39.21875 23.664062 L 35.707031 23.664062 C 35.039062 23.664062 34.390625 23.941406 33.929688 24.425781 L 28.828125 29.789062 L 28.828125 19.53125 L 28.90625 19.53125 C 30.199219 19.53125 31.25 18.480469 31.25 17.1875 C 31.25 15.894531 30.199219 14.84375 28.90625 14.84375 L 28.828125 14.84375 L 28.828125 10.625 C 28.828125 10.195312 28.476562 9.84375 28.046875 9.84375 C 27.617188 9.84375 27.265625 10.195312 27.265625 10.625 L 27.265625 14.84375 L 22.605469 14.84375 L 19.433594 13.339844 C 19.414062 13.328125 19.394531 13.316406 19.371094 13.304688 L 19.03125 13.136719 C 21.132812 12.855469 22.757812 11.054688 22.757812 8.878906 C 22.757812 6.511719 20.832031 4.582031 18.460938 4.582031 C 16.09375 4.582031 14.164062 6.511719 14.164062 8.878906 C 14.164062 9.921875 14.539062 10.875 15.15625 11.621094 C 14.671875 11.597656 14.195312 11.664062 13.738281 11.800781 L 12.542969 11.210938 C 10.472656 10.191406 7.957031 11.046875 6.9375 13.117188 L 4.234375 18.59375 C 3.84375 19.382812 3.789062 20.277344 4.078125 21.109375 C 4.363281 21.941406 4.960938 22.613281 5.753906 22.996094 L 6.601562 23.402344 C 6.160156 24.914062 6.332031 26.550781 7.113281 27.960938 L 3.28125 31.792969 C 3.277344 31.796875 3.273438 31.800781 3.269531 31.804688 L 1.375 33.699219 C 1.070312 34.003906 1.070312 34.5 1.375 34.804688 L 4.964844 38.394531 C 4.980469 38.410156 4.996094 38.425781 5.011719 38.4375 L 0.78125 38.4375 C 0.351562 38.4375 0 38.789062 0 39.21875 C 0 39.648438 0.351562 40 0.78125 40 L 8.28125 40 C 9.027344 40 9.734375 39.710938 10.265625 39.1875 L 15.953125 33.582031 C 16.148438 33.386719 16.410156 33.28125 16.6875 33.28125 L 24.835938 33.28125 C 26.628906 33.28125 28.371094 32.535156 29.609375 31.234375 L 35.0625 25.503906 C 35.230469 25.328125 35.464844 25.226562 35.707031 25.226562 L 38.4375 25.226562 L 38.4375 39.21875 C 38.4375 39.648438 38.789062 40 39.21875 40 C 39.648438 40 40 39.648438 40 39.21875 L 40 24.445312 C 40 24.011719 39.648438 23.664062 39.21875 23.664062 Z M 29.6875 17.1875 C 29.6875 17.617188 29.335938 17.96875 28.90625 17.96875 L 22.703125 17.96875 L 23.054688 16.40625 L 28.90625 16.40625 C 29.335938 16.40625 29.6875 16.753906 29.6875 17.1875 Z M 18.460938 6.144531 C 19.96875 6.144531 21.195312 7.371094 21.195312 8.878906 C 21.195312 10.386719 19.96875 11.613281 18.460938 11.613281 C 16.953125 11.613281 15.726562 10.386719 15.726562 8.878906 C 15.726562 7.371094 16.953125 6.144531 18.460938 6.144531 Z M 16.128906 13.449219 L 18.609375 14.671875 C 18.636719 14.6875 18.664062 14.703125 18.691406 14.714844 L 21.53125 16.0625 L 21.179688 17.625 L 18.023438 16.128906 C 18.015625 16.125 18.011719 16.125 18.007812 16.121094 C 18 16.117188 17.992188 16.113281 17.984375 16.109375 L 16.253906 15.261719 C 15.867188 15.074219 15.398438 15.234375 15.210938 15.621094 C 15.019531 16.007812 15.179688 16.476562 15.566406 16.664062 L 16.59375 17.167969 L 14.582031 21.25 L 9.355469 21.25 L 12.613281 14.640625 C 13.253906 13.34375 14.832031 12.808594 16.128906 13.449219 Z M 9.800781 29.6875 L 8.699219 28.582031 C 8.824219 28.429688 8.886719 28.238281 8.878906 28.046875 L 10.441406 28.046875 C 10.4375 28.660156 10.210938 29.234375 9.800781 29.6875 Z M 11.171875 25.101562 C 10.789062 25.480469 10.550781 25.964844 10.46875 26.484375 L 8.160156 26.484375 C 7.828125 25.507812 7.847656 24.441406 8.222656 23.472656 C 8.253906 23.433594 8.277344 23.394531 8.300781 23.351562 C 8.328125 23.289062 8.351562 23.222656 8.363281 23.15625 C 8.417969 23.039062 8.476562 22.925781 8.542969 22.8125 L 14.648438 22.8125 L 13.867188 24.375 L 12.925781 24.375 C 12.261719 24.375 11.640625 24.632812 11.171875 25.101562 Z M 16.222656 26.867188 L 17.785156 26.449219 L 17.785156 28.59375 L 16.222656 28.59375 Z M 17.785156 24.832031 L 15.972656 25.316406 C 15.835938 25.085938 15.65625 24.882812 15.4375 24.726562 L 16.394531 22.8125 L 16.6875 22.8125 C 17.292969 22.8125 17.785156 23.304688 17.785156 23.914062 Z M 11.851562 12.613281 L 12.109375 12.742188 C 11.75 13.078125 11.445312 13.480469 11.214844 13.949219 L 10.523438 15.351562 L 8.117188 14.25 L 8.335938 13.808594 C 8.976562 12.507812 10.554688 11.972656 11.851562 12.613281 Z M 5.554688 20.601562 C 5.402344 20.164062 5.433594 19.695312 5.636719 19.285156 L 7.425781 15.652344 L 9.828125 16.753906 L 7.410156 21.660156 L 7.226562 21.96875 L 6.429688 21.585938 C 6.015625 21.386719 5.703125 21.035156 5.554688 20.601562 Z M 7.59375 29.691406 L 8.699219 30.792969 L 6.03125 33.464844 L 4.925781 32.359375 Z M 3.03125 34.25 L 3.820312 33.460938 L 4.964844 34.605469 C 5.324219 34.964844 5.519531 35.441406 5.519531 35.949219 C 5.519531 36.179688 5.480469 36.40625 5.398438 36.621094 Z M 9.167969 38.074219 C 8.929688 38.308594 8.617188 38.4375 8.28125 38.4375 L 6.023438 38.4375 C 6.039062 38.421875 6.054688 38.410156 6.070312 38.394531 C 6.722656 37.742188 7.082031 36.871094 7.082031 35.949219 C 7.082031 35.554688 7.015625 35.171875 6.890625 34.8125 L 10.820312 30.882812 C 11.585938 30.117188 12.003906 29.105469 12.003906 28.023438 L 12.003906 26.859375 C 12.003906 26.613281 12.101562 26.382812 12.273438 26.207031 C 12.449219 26.035156 12.679688 25.9375 12.925781 25.9375 L 14.34375 25.9375 C 14.519531 25.9375 14.660156 26.082031 14.660156 26.257812 L 14.660156 32.5 C 14.660156 32.550781 14.667969 32.597656 14.675781 32.648438 Z M 16.6875 31.71875 L 16.222656 31.71875 L 16.222656 30.15625 L 17.839844 30.15625 C 18.855469 30.15625 19.726562 30.808594 20.046875 31.71875 Z M 21.664062 31.71875 C 21.40625 30.441406 20.523438 29.390625 19.347656 28.898438 L 19.347656 23.914062 C 19.347656 22.445312 18.15625 21.25 16.6875 21.25 L 16.324219 21.25 L 18 17.847656 L 21.390625 19.453125 C 21.417969 19.46875 21.445312 19.476562 21.476562 19.488281 C 21.480469 19.488281 21.484375 19.492188 21.488281 19.492188 C 21.5 19.496094 21.511719 19.5 21.523438 19.503906 C 21.527344 19.503906 21.535156 19.503906 21.539062 19.507812 C 21.546875 19.507812 21.550781 19.511719 21.558594 19.511719 C 21.570312 19.515625 21.582031 19.515625 21.597656 19.519531 C 21.609375 19.519531 21.621094 19.523438 21.632812 19.523438 C 21.664062 19.527344 21.695312 19.53125 21.730469 19.53125 L 27.265625 19.53125 L 27.265625 31.089844 C 26.527344 31.496094 25.6875 31.71875 24.835938 31.71875 Z M 21.664062 31.71875 "/>
<path style=" stroke:none;fill-rule:nonzero;fill:rgb(0%,0%,0%);fill-opacity:1;" d="M 28.046875 8.058594 C 28.253906 8.058594 28.453125 7.976562 28.597656 7.832031 C 28.746094 7.683594 28.828125 7.484375 28.828125 7.277344 C 28.828125 7.074219 28.746094 6.871094 28.597656 6.726562 C 28.453125 6.582031 28.253906 6.496094 28.046875 6.496094 C 27.839844 6.496094 27.640625 6.582031 27.496094 6.726562 C 27.347656 6.871094 27.265625 7.074219 27.265625 7.277344 C 27.265625 7.484375 27.347656 7.683594 27.496094 7.832031 C 27.640625 7.976562 27.839844 8.058594 28.046875 8.058594 Z M 28.046875 8.058594 "/>
<path style=" stroke:none;fill-rule:nonzero;fill:rgb(0%,0%,0%);fill-opacity:1;" d="M 35.3125 9.375 C 37.898438 9.375 40 7.273438 40 4.6875 C 40 2.101562 37.898438 0 35.3125 0 C 32.726562 0 30.625 2.101562 30.625 4.6875 C 30.625 7.273438 32.726562 9.375 35.3125 9.375 Z M 35.3125 1.5625 C 37.035156 1.5625 38.4375 2.964844 38.4375 4.6875 C 38.4375 6.410156 37.035156 7.8125 35.3125 7.8125 C 33.589844 7.8125 32.1875 6.410156 32.1875 4.6875 C 32.1875 2.964844 33.589844 1.5625 35.3125 1.5625 Z M 35.3125 1.5625 "/>
</g>
</svg>
