<?xml version="1.0" encoding="UTF-8"?>
<svg xmlns="http://www.w3.org/2000/svg" xmlns:xlink="http://www.w3.org/1999/xlink" width="50pt" height="50pt" viewBox="0 0 50 50" version="1.1">
<g id="surface1">
<path style=" stroke:none;fill-rule:nonzero;fill:rgb(0%,0%,0%);fill-opacity:1;" d="M 43.363281 17.71875 L 42.359375 16.523438 C 43.230469 15.789062 43.75 14.578125 43.75 13.28125 C 43.75 11.128906 42.347656 9.375 40.625 9.375 C 39.726562 9.375 38.871094 9.867188 38.273438 10.722656 L 36.988281 9.828125 C 37.882812 8.546875 39.210938 7.8125 40.625 7.8125 C 43.210938 7.8125 45.3125 10.265625 45.3125 13.28125 C 45.3125 15.035156 44.582031 16.695312 43.363281 17.71875 Z M 43.363281 17.71875 "/>
<path style=" stroke:none;fill-rule:nonzero;fill:rgb(94.117647%,73.72549%,36.862745%);fill-opacity:1;" d="M 43.632812 16.902344 L 40.902344 11.894531 C 40.054688 10.339844 38.425781 9.375 36.65625 9.375 C 35.503906 9.375 34.386719 9.789062 33.511719 10.539062 L 32.371094 11.515625 C 31.804688 12.28125 31.074219 12.914062 30.222656 13.355469 L 29.65625 13.84375 L 29.75 14.0625 L 32.8125 14.0625 C 33.359375 14.0625 33.878906 14.160156 34.367188 14.332031 L 34.375 14.328125 L 34.375 14.335938 C 36.195312 14.980469 37.5 16.710938 37.5 18.75 L 37.5 24.179688 C 37.5 25.640625 36.816406 26.988281 35.703125 27.863281 L 35.816406 28.121094 L 36.371094 28.078125 C 37.191406 28.011719 38.03125 27.882812 38.871094 27.691406 C 42.152344 26.945312 44.53125 23.929688 44.53125 20.523438 L 44.53125 20.425781 C 44.53125 19.199219 44.222656 17.980469 43.632812 16.902344 Z M 43.632812 16.902344 "/>
<path style=" stroke:none;fill-rule:nonzero;fill:rgb(94.117647%,73.72549%,36.862745%);fill-opacity:1;" d="M 9.375 21.875 C 8.492188 21.875 7.6875 21.570312 7.03125 21.074219 L 7.03125 46.875 C 7.03125 48.167969 8.082031 49.21875 9.375 49.21875 C 10.667969 49.21875 11.71875 48.167969 11.71875 46.875 L 11.71875 21.074219 C 11.0625 21.570312 10.257812 21.875 9.375 21.875 Z M 9.375 21.875 "/>
<path style=" stroke:none;fill-rule:nonzero;fill:rgb(0%,0%,0%);fill-opacity:1;" d="M 39.246094 41.910156 L 33.804688 29.671875 L 34.855469 29.25 C 36.9375 28.414062 38.28125 26.421875 38.28125 24.179688 L 38.28125 18.75 C 38.28125 15.734375 35.828125 13.28125 32.8125 13.28125 L 31.753906 13.28125 C 33.351562 11.992188 34.375 10.019531 34.375 7.8125 C 34.375 7.546875 34.359375 7.289062 34.328125 7.03125 L 35.9375 7.03125 L 35.9375 5.46875 L 33.964844 5.46875 C 32.996094 2.742188 30.398438 0.78125 27.34375 0.78125 C 24.289062 0.78125 21.691406 2.742188 20.722656 5.46875 L 18.75 5.46875 L 18.75 7.03125 L 20.359375 7.03125 C 20.328125 7.289062 20.3125 7.546875 20.3125 7.8125 C 20.3125 10.328125 21.644531 12.535156 23.640625 13.777344 L 14.050781 17.71875 C 13.917969 15.25 11.875 13.28125 9.375 13.28125 C 6.789062 13.28125 4.6875 15.382812 4.6875 17.96875 C 4.6875 20.554688 6.789062 22.65625 9.375 22.65625 C 11.417969 22.65625 13.15625 21.339844 13.796875 19.511719 L 21.09375 16.511719 L 21.09375 19.964844 L 11.71875 23.714844 L 11.71875 25.394531 L 21.09375 21.648438 L 21.09375 30.144531 L 19.113281 32.125 C 18.375 32.863281 17.96875 33.84375 17.96875 34.886719 L 17.96875 42.96875 L 16.40625 42.96875 C 14.683594 42.96875 13.28125 44.371094 13.28125 46.09375 C 13.28125 47.816406 14.683594 49.21875 16.40625 49.21875 L 21.875 49.21875 C 23.597656 49.21875 25 47.816406 25 46.09375 L 25 37.015625 L 28.164062 33.453125 L 31.820312 42.589844 L 30.671875 43.164062 C 29.582031 43.710938 28.90625 44.804688 28.90625 46.023438 C 28.90625 47.785156 30.339844 49.21875 32.101562 49.21875 L 32.242188 49.21875 C 32.734375 49.21875 33.230469 49.101562 33.671875 48.882812 L 38.03125 46.699219 C 39.148438 46.140625 39.84375 45.019531 39.84375 43.777344 C 39.851562 43.101562 39.644531 42.457031 39.246094 41.910156 Z M 9.375 21.09375 C 7.652344 21.09375 6.25 19.691406 6.25 17.96875 C 6.25 16.246094 7.652344 14.84375 9.375 14.84375 C 11.097656 14.84375 12.5 16.246094 12.5 17.96875 C 12.5 19.691406 11.097656 21.09375 9.375 21.09375 Z M 34.753906 35.65625 L 31.398438 37.332031 L 29.09375 31.570312 L 32.355469 30.257812 Z M 35.15625 22.917969 L 35.15625 15.625 C 36.105469 16.339844 36.71875 17.472656 36.71875 18.75 L 36.71875 24.179688 C 36.71875 25.78125 35.757812 27.203125 34.273438 27.800781 L 27.925781 30.355469 C 27.136719 30.671875 26.207031 30.269531 25.890625 29.488281 C 25.574219 28.6875 25.964844 27.777344 26.773438 27.453125 L 34.195312 24.359375 C 34.78125 24.113281 35.15625 23.550781 35.15625 22.917969 Z M 33.59375 14.921875 L 33.59375 22.917969 L 31.25 23.894531 L 31.25 14.84375 L 32.8125 14.84375 C 33.082031 14.84375 33.339844 14.871094 33.59375 14.921875 Z M 27.34375 2.34375 C 29.519531 2.34375 31.398438 3.625 32.277344 5.46875 L 22.410156 5.46875 C 23.289062 3.625 25.167969 2.34375 27.34375 2.34375 Z M 21.875 7.8125 C 21.875 7.546875 21.902344 7.289062 21.9375 7.03125 L 32.75 7.03125 C 32.785156 7.289062 32.8125 7.546875 32.8125 7.8125 C 32.8125 10.828125 30.359375 13.28125 27.34375 13.28125 C 24.328125 13.28125 21.875 10.828125 21.875 7.8125 Z M 24.441406 15.136719 C 24.621094 15.0625 24.8125 15.015625 25 14.96875 L 25 23.4375 C 25 23.867188 24.648438 24.21875 24.21875 24.21875 L 22.65625 24.21875 L 22.65625 15.871094 Z M 21.875 47.65625 L 16.40625 47.65625 C 15.542969 47.65625 14.84375 46.957031 14.84375 46.09375 C 14.84375 45.230469 15.542969 44.53125 16.40625 44.53125 L 19.53125 44.53125 L 19.53125 40.625 L 23.4375 40.625 L 23.4375 46.09375 C 23.4375 46.957031 22.738281 47.65625 21.875 47.65625 Z M 23.832031 35.976562 C 23.578125 36.261719 23.4375 36.632812 23.4375 37.015625 L 23.4375 39.0625 L 19.53125 39.0625 L 19.53125 34.886719 C 19.53125 34.269531 19.78125 33.667969 20.21875 33.230469 L 22.65625 30.792969 L 22.65625 25.78125 L 24.21875 25.78125 C 25.511719 25.78125 26.5625 24.730469 26.5625 23.4375 L 26.5625 14.84375 L 29.6875 14.84375 L 29.6875 24.542969 L 26.183594 26.003906 C 24.582031 26.644531 23.804688 28.46875 24.441406 30.066406 C 24.917969 31.257812 26.058594 32.03125 27.339844 32.03125 Z M 37.332031 45.304688 L 32.972656 47.484375 C 32.746094 47.597656 32.496094 47.65625 32.242188 47.65625 L 32.101562 47.65625 C 31.203125 47.65625 30.46875 46.921875 30.46875 46.023438 C 30.46875 45.402344 30.8125 44.839844 31.371094 44.5625 L 33.804688 43.347656 L 31.980469 38.789062 L 35.390625 37.085938 L 37.855469 42.628906 L 37.953125 42.792969 C 38.171875 43.070312 38.285156 43.40625 38.28125 43.769531 C 38.28125 44.421875 37.917969 45.011719 37.332031 45.304688 Z M 37.332031 45.304688 "/>
</g>
</svg>
