<?xml version="1.0" encoding="UTF-8"?>
<svg xmlns="http://www.w3.org/2000/svg" xmlns:xlink="http://www.w3.org/1999/xlink" width="40pt" height="40pt" viewBox="0 0 40 40" version="1.1">
<g id="surface1">
<path style=" stroke:none;fill-rule:nonzero;fill:rgb(0%,0%,0%);fill-opacity:1;" d="M 22.144531 35.394531 C 21.125 34.625 19.941406 34.152344 18.6875 34.015625 L 18.6875 27.03125 C 18.6875 26.597656 18.335938 26.25 17.90625 26.25 C 17.472656 26.25 17.121094 26.597656 17.121094 27.03125 L 17.121094 34.015625 C 15.867188 34.152344 14.683594 34.621094 13.664062 35.394531 C 12.484375 36.292969 11.601562 37.566406 11.183594 38.984375 C 11.171875 39.019531 11.164062 39.0625 11.15625 39.101562 C 11.144531 39.191406 11.144531 39.28125 11.164062 39.363281 C 11.1875 39.5 11.25 39.625 11.335938 39.726562 C 11.386719 39.785156 11.449219 39.839844 11.515625 39.878906 C 11.621094 39.945312 11.738281 39.988281 11.867188 39.996094 C 11.890625 40 11.910156 40 11.933594 40 L 23.878906 40 C 24.125 40 24.355469 39.882812 24.503906 39.6875 C 24.652344 39.492188 24.699219 39.234375 24.628906 39 C 24.214844 37.578125 23.332031 36.296875 22.144531 35.394531 Z M 13.089844 38.4375 C 14.015625 36.6875 15.867188 35.535156 17.90625 35.535156 C 19.941406 35.535156 21.792969 36.6875 22.71875 38.4375 Z M 13.089844 38.4375 "/>
<path style=" stroke:none;fill-rule:nonzero;fill:rgb(0%,0%,0%);fill-opacity:1;" d="M 17.90625 24.9375 C 18.109375 24.9375 18.3125 24.855469 18.457031 24.710938 C 18.605469 24.5625 18.6875 24.363281 18.6875 24.15625 C 18.6875 23.953125 18.605469 23.75 18.457031 23.605469 C 18.3125 23.460938 18.109375 23.375 17.90625 23.375 C 17.699219 23.375 17.496094 23.460938 17.351562 23.605469 C 17.207031 23.75 17.121094 23.953125 17.121094 24.15625 C 17.121094 24.363281 17.207031 24.5625 17.351562 24.710938 C 17.496094 24.855469 17.699219 24.9375 17.90625 24.9375 Z M 17.90625 24.9375 "/>
<path style=" stroke:none;fill-rule:nonzero;fill:rgb(0%,0%,0%);fill-opacity:1;" d="M 32.1875 0 C 27.886719 0 24.386719 3.492188 24.386719 7.785156 C 24.386719 8.296875 24.4375 8.804688 24.539062 9.300781 L 12.058594 9.300781 C 12.851562 8.472656 13.726562 7.253906 13.949219 5.765625 C 14.363281 2.949219 12.261719 0.390625 12.171875 0.28125 C 11.917969 -0.0234375 11.472656 -0.0898438 11.140625 0.128906 C 11.058594 0.179688 9.398438 1.289062 8.449219 3.085938 C 8.332031 2.949219 8.207031 2.8125 8.078125 2.683594 C 5.367188 -0.0195312 1.070312 0 0.890625 0 C 0.464844 0.0078125 0.121094 0.347656 0.117188 0.773438 C 0.117188 0.953125 0.0976562 5.238281 2.804688 7.945312 C 3.367188 8.503906 4 8.949219 4.648438 9.300781 L 3.542969 9.300781 C 3.296875 9.300781 3.0625 9.417969 2.914062 9.613281 C 2.769531 9.808594 2.722656 10.0625 2.789062 10.300781 C 3.308594 12.066406 4.144531 13.734375 5.242188 15.21875 C 5.257812 15.242188 5.273438 15.265625 5.292969 15.285156 C 6.167969 16.457031 7.207031 17.511719 8.378906 18.398438 C 11.136719 20.496094 14.429688 21.601562 17.90625 21.601562 C 21.378906 21.601562 24.671875 20.496094 27.429688 18.398438 C 28.570312 17.535156 29.585938 16.511719 30.449219 15.375 C 31.015625 15.507812 31.601562 15.574219 32.1875 15.574219 C 36.492188 15.574219 39.988281 12.078125 39.988281 7.785156 C 39.988281 3.492188 36.492188 0 32.1875 0 Z M 9.566406 4.417969 C 9.957031 3.304688 10.816406 2.410156 11.402344 1.902344 C 11.898438 2.6875 12.609375 4.113281 12.398438 5.535156 C 12.214844 6.785156 11.347656 7.828125 10.667969 8.476562 C 10.53125 7.449219 10.214844 5.988281 9.476562 4.597656 C 9.511719 4.542969 9.542969 4.484375 9.566406 4.417969 Z M 1.734375 1.613281 C 2.980469 1.742188 5.371094 2.195312 6.96875 3.789062 C 8.570312 5.386719 9.019531 7.769531 9.148438 9.015625 C 7.902344 8.886719 5.511719 8.433594 3.914062 6.839844 C 2.3125 5.242188 1.863281 2.859375 1.734375 1.613281 Z M 31.183594 10.863281 C 30.777344 11.941406 30.242188 12.949219 29.601562 13.875 C 27.933594 12.390625 25.804688 11.578125 23.550781 11.578125 C 21.121094 11.578125 18.832031 12.523438 17.113281 14.238281 C 14.191406 17.15625 9.445312 17.171875 6.5 14.285156 C 5.730469 13.25 5.09375 12.101562 4.628906 10.863281 Z M 29.632812 7.785156 C 29.632812 6.375 30.777344 5.230469 32.1875 5.230469 C 33.601562 5.230469 34.746094 6.375 34.746094 7.785156 C 34.746094 8.894531 34.035156 9.839844 33.042969 10.191406 C 33.054688 10.109375 33.050781 10.023438 33.039062 9.945312 C 33.007812 9.773438 32.921875 9.621094 32.800781 9.507812 C 32.785156 9.496094 32.773438 9.484375 32.761719 9.472656 C 32.625 9.367188 32.453125 9.300781 32.265625 9.300781 L 30.132812 9.300781 C 29.804688 8.859375 29.632812 8.335938 29.632812 7.785156 Z M 17.90625 20.039062 C 15.210938 20.039062 12.636719 19.261719 10.441406 17.902344 C 10.886719 17.96875 11.335938 18 11.78125 18 C 14.113281 18 16.445312 17.113281 18.21875 15.34375 C 19.644531 13.921875 21.539062 13.140625 23.550781 13.140625 C 25.453125 13.140625 27.25 13.839844 28.640625 15.113281 C 26 18.160156 22.101562 20.039062 17.90625 20.039062 Z M 32.1875 14.007812 C 31.925781 14.007812 31.667969 13.992188 31.410156 13.960938 C 31.808594 13.296875 32.160156 12.605469 32.457031 11.890625 C 34.605469 11.753906 36.3125 9.964844 36.3125 7.785156 C 36.3125 5.515625 34.464844 3.667969 32.1875 3.667969 C 29.914062 3.667969 28.066406 5.515625 28.066406 7.785156 C 28.066406 8.304688 28.167969 8.820312 28.355469 9.300781 L 26.140625 9.300781 C 26.015625 8.808594 25.953125 8.300781 25.953125 7.785156 C 25.953125 4.355469 28.75 1.5625 32.1875 1.5625 C 35.628906 1.5625 38.425781 4.355469 38.425781 7.785156 C 38.425781 11.21875 35.628906 14.007812 32.1875 14.007812 Z M 32.1875 14.007812 "/>
</g>
</svg>
