<?xml version="1.0" encoding="UTF-8"?>
<svg xmlns="http://www.w3.org/2000/svg" xmlns:xlink="http://www.w3.org/1999/xlink" width="40pt" height="40pt" viewBox="0 0 40 40" version="1.1">
<g id="surface1">
<path style=" stroke:none;fill-rule:nonzero;fill:rgb(0%,0%,0%);fill-opacity:1;" d="M 15.886719 7.386719 C 15.582031 7.691406 15.582031 8.183594 15.886719 8.488281 C 16.039062 8.640625 16.238281 8.71875 16.4375 8.71875 C 16.636719 8.71875 16.839844 8.640625 16.992188 8.488281 C 18.28125 7.199219 18.28125 5.097656 16.992188 3.808594 C 16.308594 3.125 16.308594 2.015625 16.992188 1.332031 C 17.296875 1.027344 17.296875 0.535156 16.992188 0.230469 C 16.683594 -0.078125 16.191406 -0.078125 15.886719 0.230469 C 14.59375 1.519531 14.59375 3.621094 15.886719 4.910156 C 16.566406 5.59375 16.566406 6.703125 15.886719 7.386719 Z M 15.886719 7.386719 "/>
<path style=" stroke:none;fill-rule:nonzero;fill:rgb(0%,0%,0%);fill-opacity:1;" d="M 20.667969 7.386719 C 20.363281 7.691406 20.363281 8.183594 20.667969 8.488281 C 20.820312 8.640625 21.019531 8.71875 21.21875 8.71875 C 21.417969 8.71875 21.617188 8.640625 21.773438 8.488281 C 23.0625 7.199219 23.0625 5.097656 21.773438 3.808594 C 21.441406 3.476562 21.257812 3.039062 21.257812 2.570312 C 21.257812 2.101562 21.441406 1.664062 21.773438 1.332031 C 22.078125 1.027344 22.078125 0.535156 21.773438 0.230469 C 21.464844 -0.078125 20.972656 -0.0742188 20.667969 0.230469 C 20.042969 0.855469 19.695312 1.6875 19.695312 2.570312 C 19.695312 3.453125 20.042969 4.285156 20.667969 4.910156 C 21.347656 5.59375 21.347656 6.703125 20.667969 7.386719 Z M 20.667969 7.386719 "/>
<path style=" stroke:none;fill-rule:nonzero;fill:rgb(0%,0%,0%);fill-opacity:1;" d="M 25.449219 7.386719 C 25.140625 7.691406 25.140625 8.183594 25.449219 8.488281 C 25.601562 8.640625 25.800781 8.71875 26 8.71875 C 26.199219 8.71875 26.398438 8.640625 26.550781 8.488281 C 27.84375 7.199219 27.84375 5.097656 26.550781 3.808594 C 26.222656 3.476562 26.039062 3.039062 26.039062 2.570312 C 26.039062 2.101562 26.222656 1.664062 26.550781 1.332031 C 26.855469 1.027344 26.855469 0.535156 26.550781 0.230469 C 26.246094 -0.078125 25.753906 -0.0742188 25.449219 0.230469 C 24.820312 0.855469 24.476562 1.6875 24.476562 2.570312 C 24.476562 3.453125 24.820312 4.285156 25.449219 4.910156 C 26.128906 5.59375 26.128906 6.703125 25.449219 7.386719 Z M 25.449219 7.386719 "/>
<path style=" stroke:none;fill-rule:nonzero;fill:rgb(0%,0%,0%);fill-opacity:1;" d="M 32.015625 27.449219 C 33.003906 25.660156 33.566406 23.609375 33.566406 21.429688 L 33.566406 11.230469 C 33.566406 10.796875 33.21875 10.449219 32.785156 10.449219 L 9.402344 10.449219 C 8.972656 10.449219 8.621094 10.796875 8.621094 11.230469 L 8.621094 13.910156 L 6.367188 13.910156 C 2.855469 13.910156 0 16.765625 0 20.277344 C 0 22.703125 1.410156 24.953125 3.597656 26.007812 L 7.929688 28.101562 C 4.210938 29.367188 2.191406 31.117188 2.191406 33.121094 C 2.191406 35.140625 4.210938 36.886719 8.03125 38.171875 C 11.53125 39.351562 16.171875 40 21.09375 40 C 26.019531 40 30.660156 39.351562 34.160156 38.171875 C 37.980469 36.886719 40 35.140625 40 33.121094 C 40 30.75 37.105469 28.707031 32.015625 27.449219 Z M 10.183594 12.011719 L 32.003906 12.011719 L 32.003906 21.429688 C 32.003906 27.445312 27.109375 32.339844 21.09375 32.339844 C 17.648438 32.339844 14.476562 30.761719 12.394531 28.011719 C 10.949219 26.105469 10.183594 23.828125 10.183594 21.429688 Z M 1.5625 20.277344 C 1.5625 17.628906 3.71875 15.472656 6.367188 15.472656 L 8.621094 15.472656 L 8.621094 21.429688 C 8.621094 23.566406 9.152344 25.613281 10.167969 27.449219 L 4.277344 24.601562 C 2.628906 23.804688 1.5625 22.109375 1.5625 20.277344 Z M 33.660156 36.691406 C 30.316406 37.816406 25.851562 38.4375 21.09375 38.4375 C 16.335938 38.4375 11.875 37.816406 8.527344 36.691406 C 5.539062 35.6875 3.753906 34.351562 3.753906 33.121094 C 3.753906 31.675781 6.144531 30.140625 10.003906 29.105469 L 12.1875 30.160156 C 12.1875 30.160156 12.191406 30.160156 12.191406 30.160156 C 13.144531 31.128906 14.25 31.941406 15.453125 32.554688 C 17.210938 33.449219 19.109375 33.902344 21.09375 33.902344 C 25.199219 33.902344 28.847656 31.910156 31.121094 28.839844 C 33.367188 29.355469 35.230469 30.039062 36.53125 30.824219 C 37.402344 31.347656 38.4375 32.171875 38.4375 33.121094 C 38.4375 34.351562 36.652344 35.6875 33.660156 36.691406 Z M 33.660156 36.691406 "/>
<path style=" stroke:none;fill-rule:nonzero;fill:rgb(0%,0%,0%);fill-opacity:1;" d="M 21.09375 30.046875 L 21.148438 30.042969 C 21.578125 30.042969 21.925781 29.691406 21.921875 29.257812 C 21.921875 28.828125 21.570312 28.484375 21.144531 28.484375 C 21.140625 28.484375 21.140625 28.484375 21.136719 28.484375 L 21.09375 28.484375 C 20.664062 28.484375 20.3125 28.832031 20.3125 29.265625 C 20.3125 29.695312 20.664062 30.046875 21.09375 30.046875 Z M 21.09375 30.046875 "/>
<path style=" stroke:none;fill-rule:nonzero;fill:rgb(0%,0%,0%);fill-opacity:1;" d="M 23.949219 29.507812 C 24.042969 29.507812 24.140625 29.492188 24.234375 29.457031 C 25.828125 28.832031 27.191406 27.753906 28.171875 26.34375 C 29.179688 24.894531 29.710938 23.195312 29.710938 21.429688 C 29.710938 20.996094 29.359375 20.648438 28.929688 20.648438 C 28.496094 20.648438 28.148438 20.996094 28.148438 21.429688 C 28.148438 24.355469 26.386719 26.933594 23.664062 28 C 23.261719 28.15625 23.0625 28.609375 23.21875 29.011719 C 23.339844 29.320312 23.636719 29.507812 23.949219 29.507812 Z M 23.949219 29.507812 "/>
</g>
</svg>
