<svg xmlns="http://www.w3.org/2000/svg" viewBox="0 0 512 512.00013"><path d="m203.335938 94.527344c-3.902344 3.90625-3.902344 10.238281 0 14.144531 1.953124 1.953125 4.511718 2.929687 7.070312 2.929687 2.5625 0 5.121094-.976562 7.074219-2.929687 16.523437-16.527344 16.523437-43.417969 0-59.941406-8.730469-8.730469-8.730469-22.929688 0-31.660157 3.902343-3.902343 3.902343-10.234374 0-14.140624-3.90625-3.90625-10.238281-3.90625-14.144531 0-16.527344 16.527343-16.527344 43.414062 0 59.941406 8.730468 8.726562 8.730468 22.929687 0 31.65625zm0 0"/><path d="m264.53125 94.527344c-3.902344 3.90625-3.902344 10.238281 0 14.144531 1.953125 1.953125 4.511719 2.929687 7.070312 2.929687 2.558594 0 5.121094-.976562 7.074219-2.929687 16.523438-16.527344 16.523438-43.417969 0-59.941406-4.230469-4.230469-6.558593-9.851563-6.558593-15.828125 0-5.980469 2.328124-11.601563 6.558593-15.832032 3.902344-3.902343 3.902344-10.234374 0-14.140624-3.90625-3.90625-10.238281-3.902344-14.144531 0-8.003906 8.003906-12.414062 18.648437-12.414062 29.972656 0 11.320312 4.410156 21.964844 12.414062 29.96875 8.730469 8.726562 8.730469 22.929687 0 31.65625zm0 0"/><path d="m325.726562 94.527344c-3.90625 3.90625-3.90625 10.238281 0 14.144531 1.953126 1.953125 4.511719 2.929687 7.070313 2.929687s5.121094-.976562 7.070313-2.929687c16.527343-16.527344 16.527343-43.417969 0-59.941406-4.226563-4.230469-6.554688-9.851563-6.554688-15.828125 0-5.980469 2.328125-11.601563 6.554688-15.832032 3.90625-3.902343 3.90625-10.234374 0-14.140624-3.902344-3.90625-10.234376-3.902344-14.140626 0-8.003906 8.003906-12.414062 18.648437-12.414062 29.972656 0 11.320312 4.410156 21.964844 12.414062 29.96875 8.726563 8.726562 8.726563 22.929687 0 31.65625zm0 0"/><path d="m409.804688 351.328125c12.644531-22.855469 19.855468-49.117187 19.855468-77.035156v-130.566407c0-5.519531-4.476562-10-10-10h-299.296875c-5.523437 0-10 4.480469-10 10v34.335938h-28.882812c-44.929688 0-81.480469 36.550781-81.480469 81.480469 0 31.054687 18.066406 59.851562 46.03125 73.363281l55.449219 26.792969c-47.582031 16.199219-73.453125 38.621093-73.453125 64.242187 0 25.851563 25.851562 48.214844 74.757812 64.671875 44.816406 15.082031 104.207032 23.386719 167.226563 23.386719 63.023437 0 122.414062-8.304688 167.230469-23.386719 48.90625-16.457031 74.757812-38.820312 74.757812-64.671875 0-30.339844-37.054688-56.511718-102.195312-72.613281zm-279.441407-197.601563h279.296875v120.566407c0 77-62.644531 139.648437-139.648437 139.648437-44.109375 0-84.707031-20.191406-111.378907-55.398437-18.492187-24.40625-28.269531-53.539063-28.269531-84.25zm-110.363281 105.816407c0-33.898438 27.578125-61.480469 61.480469-61.480469h28.882812v76.230469c0 27.335937 6.78125 53.582031 19.765625 77.039062l-75.398437-36.433593c-21.097657-10.191407-34.730469-31.921876-34.730469-55.355469zm410.863281 210.117187c-42.816406 14.40625-99.941406 22.339844-160.851562 22.339844-60.910157 0-118.035157-7.933594-160.851563-22.339844-38.28125-12.882812-61.132812-29.972656-61.132812-45.71875 0-18.515625 30.613281-38.128906 80.035156-51.394531l27.917969 13.492187c.03125.011719.058593.019532.089843.035157 12.15625 12.371093 26.304688 22.796875 41.707032 30.625 22.511718 11.441406 46.816406 17.242187 72.234375 17.242187 52.53125 0 99.214843-25.507812 128.324219-64.78125 28.742187 6.597656 52.617187 15.335938 69.269531 25.382813 11.128906 6.714843 24.394531 17.269531 24.394531 29.398437 0 15.746094-22.855469 32.835938-61.136719 45.71875zm0 0"/><path d="m270.011719 384.578125.683593-.003906c5.523438-.039063 9.96875-4.546875 9.929688-10.070313-.039062-5.496094-4.507812-9.925781-9.996094-9.925781-.027344 0-.050781 0-.074218 0h-.539063c-5.523437 0-10 4.476563-10 10s4.472656 10 9.996094 10zm0 0"/><path d="m306.539062 377.722656c1.210938 0 2.441407-.222656 3.640626-.691406 20.433593-7.992188 37.875-21.773438 50.445312-39.855469 12.871094-18.515625 19.671875-40.257812 19.671875-62.882812 0-5.523438-4.476563-10-10-10s-10 4.476562-10 10c0 37.453125-22.53125 70.472656-57.402344 84.113281-5.144531 2.011719-7.683593 7.8125-5.671875 12.957031 1.542969 3.945313 5.320313 6.359375 9.316406 6.359375zm0 0"/></svg>