<?xml version="1.0" encoding="UTF-8"?>
<svg xmlns="http://www.w3.org/2000/svg" xmlns:xlink="http://www.w3.org/1999/xlink" width="50pt" height="50pt" viewBox="0 0 50 50" version="1.1">
<g id="surface1">
<path style=" stroke:none;fill-rule:nonzero;fill:rgb(94.117647%,73.72549%,36.862745%);fill-opacity:1;" d="M 35.15625 28.125 C 27.34375 28.125 21.09375 20.3125 14.84375 20.3125 C 14.714844 20.3125 14.585938 20.316406 14.453125 20.320312 C 14.195312 21.113281 14.0625 21.941406 14.0625 22.78125 C 14.0625 24.875 14.886719 26.851562 16.304688 28.3125 L 16.3125 28.316406 C 16.871094 28.195312 17.441406 28.125 18.019531 28.125 L 33.960938 28.125 C 34.660156 28.125 35.226562 28.691406 35.226562 29.390625 C 35.226562 29.585938 35.179688 29.777344 35.09375 29.953125 C 34.324219 31.496094 32.84375 32.535156 31.164062 32.765625 C 34.742188 32.535156 38.226562 31.476562 41.335938 29.664062 L 41.371094 29.644531 C 43.046875 28.664062 44.265625 27.117188 44.875 25.332031 C 43.488281 27.042969 39.054688 28.125 35.15625 28.125 Z M 35.15625 28.125 "/>
<path style=" stroke:none;fill-rule:nonzero;fill:rgb(94.117647%,73.72549%,36.862745%);fill-opacity:1;" d="M 40.625 0.78125 C 35.886719 0.78125 32.03125 4.636719 32.03125 9.375 C 32.03125 9.921875 32.089844 10.46875 32.195312 11 C 33.722656 11.078125 35.148438 11.230469 36.417969 11.433594 L 36.410156 11.429688 C 36.105469 10.808594 35.9375 10.113281 35.9375 9.375 C 35.9375 6.785156 38.035156 4.6875 40.625 4.6875 C 43.214844 4.6875 45.3125 6.785156 45.3125 9.375 C 45.3125 11.433594 43.988281 13.179688 42.144531 13.8125 L 42.136719 13.808594 C 42.164062 13.890625 42.1875 13.976562 42.1875 14.0625 L 43.675781 17.410156 C 46.992188 16.148438 49.21875 12.925781 49.21875 9.375 C 49.21875 4.636719 45.363281 0.78125 40.625 0.78125 Z M 40.625 0.78125 "/>
<path style=" stroke:none;fill-rule:nonzero;fill:rgb(0%,0%,0%);fill-opacity:1;" d="M 45.71875 25.261719 C 45.957031 24.464844 46.09375 23.632812 46.09375 22.78125 C 46.09375 21.550781 45.839844 20.359375 45.339844 19.234375 L 43.121094 14.238281 C 44.925781 13.3125 46.09375 11.449219 46.09375 9.375 C 46.09375 6.359375 43.640625 3.90625 40.625 3.90625 C 37.609375 3.90625 35.15625 6.359375 35.15625 9.375 C 35.15625 9.757812 35.199219 10.128906 35.277344 10.496094 C 33.273438 10.25 31.246094 10.15625 29.6875 10.15625 C 28.316406 10.15625 26.988281 10.222656 25.707031 10.328125 L 24.675781 5.175781 C 24.167969 2.628906 21.910156 0.78125 19.3125 0.78125 L 7.8125 0.78125 C 6.519531 0.78125 5.46875 1.832031 5.46875 3.125 C 5.46875 4.417969 6.519531 5.46875 7.8125 5.46875 L 19.3125 5.46875 C 19.683594 5.46875 20.007812 5.734375 20.078125 6.097656 L 21.0625 11.007812 C 18.195312 11.664062 16.648438 12.601562 16.449219 13.800781 L 14.035156 19.234375 C 13.535156 20.359375 13.28125 21.550781 13.28125 22.78125 C 13.28125 24.644531 13.875 26.421875 14.953125 27.902344 C 14.890625 27.925781 14.820312 27.945312 14.757812 27.972656 L 13.804688 28.351562 C 12.695312 28.796875 11.703125 29.449219 10.855469 30.296875 L 9.007812 32.144531 L 6.726562 31.003906 L 0.78125 41.195312 L 0.78125 49.21875 L 16.074219 49.21875 L 22.1875 38.738281 L 20.980469 38.132812 C 22.214844 37.21875 23.695312 36.71875 25.261719 36.71875 L 26.5625 36.71875 L 26.5625 38.589844 C 23.652344 39.183594 21.875 40.535156 21.875 42.1875 L 21.875 45.3125 C 21.875 47.539062 25.234375 49.21875 29.6875 49.21875 C 34.140625 49.21875 37.5 47.539062 37.5 45.3125 L 37.5 42.1875 C 37.5 40.535156 35.722656 39.183594 32.8125 38.589844 L 32.8125 36.71875 L 34.523438 36.71875 C 36.152344 36.71875 37.742188 36.269531 39.128906 35.414062 L 46.175781 31.078125 C 47.144531 30.480469 47.726562 29.441406 47.726562 28.261719 C 47.726562 26.910156 46.90625 25.757812 45.71875 25.261719 Z M 36.71875 9.375 C 36.71875 7.222656 38.472656 5.46875 40.625 5.46875 C 42.777344 5.46875 44.53125 7.222656 44.53125 9.375 C 44.53125 10.84375 43.707031 12.171875 42.433594 12.835938 C 41.480469 11.816406 39.355469 11.152344 36.96875 10.742188 C 36.804688 10.304688 36.71875 9.847656 36.71875 9.375 Z M 29.6875 11.71875 C 37.300781 11.71875 41.40625 13.382812 41.40625 14.0625 C 41.40625 14.742188 37.300781 16.40625 29.6875 16.40625 C 28.699219 16.40625 27.773438 16.378906 26.90625 16.328125 L 26.015625 11.871094 C 27.199219 11.777344 28.421875 11.71875 29.6875 11.71875 Z M 19.3125 3.90625 L 7.8125 3.90625 C 7.382812 3.90625 7.03125 3.554688 7.03125 3.125 C 7.03125 2.695312 7.382812 2.34375 7.8125 2.34375 L 19.3125 2.34375 C 21.167969 2.34375 22.78125 3.664062 23.144531 5.484375 L 25.285156 16.199219 C 24.714844 16.144531 24.164062 16.082031 23.65625 16.007812 L 21.613281 5.789062 C 21.394531 4.699219 20.425781 3.90625 19.3125 3.90625 Z M 21.367188 12.53125 L 22.003906 15.71875 C 19.359375 15.179688 17.96875 14.457031 17.96875 14.0625 C 17.96875 13.929688 18.585938 13.175781 21.367188 12.53125 Z M 14.84375 22.78125 C 14.84375 21.769531 15.050781 20.792969 15.460938 19.871094 L 17.339844 15.644531 C 19.703125 17.441406 26.007812 17.96875 29.6875 17.96875 C 33.367188 17.96875 39.671875 17.441406 42.035156 15.644531 L 43.914062 19.871094 C 44.324219 20.792969 44.53125 21.769531 44.53125 22.78125 C 44.53125 25.316406 43.167969 27.691406 40.941406 28.988281 C 39.113281 30.054688 37.144531 30.84375 35.105469 31.351562 C 35.363281 31.027344 35.601562 30.683594 35.792969 30.304688 C 35.933594 30.019531 36.007812 29.703125 36.007812 29.386719 C 36.007812 28.261719 35.089844 27.34375 33.960938 27.34375 L 18.015625 27.34375 C 17.539062 27.34375 17.066406 27.390625 16.597656 27.464844 C 15.46875 26.164062 14.84375 24.515625 14.84375 22.78125 Z M 15.175781 47.65625 L 2.34375 47.65625 L 2.34375 41.617188 L 7.335938 33.058594 L 20 39.390625 Z M 29.6875 47.65625 C 25.871094 47.65625 23.4375 46.269531 23.4375 45.3125 L 23.4375 44.582031 C 24.839844 45.511719 27.070312 46.09375 29.6875 46.09375 C 32.304688 46.09375 34.535156 45.511719 35.9375 44.582031 L 35.9375 45.3125 C 35.9375 46.269531 33.503906 47.65625 29.6875 47.65625 Z M 32.8125 42.1875 L 32.8125 40.1875 C 34.847656 40.667969 35.9375 41.53125 35.9375 42.1875 C 35.9375 43.144531 33.503906 44.53125 29.6875 44.53125 C 25.871094 44.53125 23.4375 43.144531 23.4375 42.1875 C 23.4375 41.53125 24.527344 40.667969 26.5625 40.1875 L 26.5625 42.1875 L 28.125 42.1875 L 28.125 36.71875 L 31.25 36.71875 L 31.25 42.1875 Z M 45.355469 29.75 L 38.308594 34.085938 C 37.171875 34.785156 35.863281 35.15625 34.523438 35.15625 L 25.261719 35.15625 C 23.09375 35.15625 21.054688 35.941406 19.449219 37.367188 L 10.480469 32.882812 L 11.960938 31.402344 C 12.65625 30.707031 13.472656 30.167969 14.386719 29.800781 L 15.335938 29.421875 C 16.191406 29.078125 17.09375 28.90625 18.015625 28.90625 L 33.960938 28.90625 C 34.226562 28.90625 34.445312 29.121094 34.445312 29.390625 C 34.445312 29.464844 34.425781 29.539062 34.394531 29.605469 C 33.742188 30.90625 32.515625 31.78125 31.105469 31.984375 C 30.636719 32.015625 30.160156 32.03125 29.6875 32.03125 L 19.601562 32.03125 L 19.601562 33.59375 L 30.46875 33.59375 C 30.710938 33.59375 30.949219 33.570312 31.1875 33.542969 C 34.894531 33.308594 38.515625 32.214844 41.765625 30.316406 C 43.238281 29.457031 44.386719 28.1875 45.136719 26.707031 C 45.746094 26.96875 46.164062 27.574219 46.164062 28.300781 C 46.164062 28.894531 45.859375 29.4375 45.355469 29.75 Z M 45.355469 29.75 "/>
</g>
</svg>
