<?xml version="1.0" encoding="UTF-8"?>
<svg xmlns="http://www.w3.org/2000/svg" xmlns:xlink="http://www.w3.org/1999/xlink" width="50pt" height="50pt" viewBox="0 0 50 50" version="1.1">
<g id="surface1">
<path style=" stroke:none;fill-rule:nonzero;fill:#f9aa68;fill-opacity:1;" d="M 12.5 28.90625 L 7.03125 28.90625 L 7.03125 21.09375 L 12.5 21.09375 Z M 12.5 28.90625 "/>
<path style=" stroke:none;fill-rule:nonzero;fill:#f9aa68;fill-opacity:1;" d="M 12.5 39.84375 L 7.03125 39.84375 L 7.03125 32.03125 L 12.5 32.03125 Z M 12.5 39.84375 "/>
<path style=" stroke:none;fill-rule:nonzero;fill:#f9aa68;fill-opacity:1;" d="M 42.96875 28.90625 L 37.5 28.90625 L 37.5 21.09375 L 42.96875 21.09375 Z M 42.96875 28.90625 "/>
<path style=" stroke:none;fill-rule:nonzero;fill:#f9aa68;fill-opacity:1;" d="M 42.96875 39.84375 L 37.5 39.84375 L 37.5 32.03125 L 42.96875 32.03125 Z M 42.96875 39.84375 "/>
<path style=" stroke:none;fill-rule:nonzero;fill:#f9aa68;fill-opacity:1;" d="M 30.46875 28.90625 L 19.53125 28.90625 L 19.53125 19.53125 L 30.46875 19.53125 Z M 30.46875 28.90625 "/>
<path style=" stroke:none;fill-rule:nonzero;fill:#f9aa68;fill-opacity:1;" d="M 27.34375 11.71875 C 27.34375 13.011719 26.292969 14.0625 25 14.0625 C 23.707031 14.0625 22.65625 13.011719 22.65625 11.71875 C 22.65625 10.425781 23.707031 9.375 25 9.375 C 26.292969 9.375 27.34375 10.425781 27.34375 11.71875 Z M 27.34375 11.71875 "/>
<path style=" stroke:none;fill-rule:nonzero;fill:rgb(0%,0%,0%);fill-opacity:1;" d="M 46.875 17.96875 C 48.167969 17.96875 49.21875 16.917969 49.21875 15.625 L 49.21875 10.9375 C 49.21875 9.644531 48.167969 8.59375 46.875 8.59375 L 35.34375 8.59375 L 26.066406 0.78125 L 23.933594 0.78125 L 14.65625 8.59375 L 3.125 8.59375 C 1.832031 8.59375 0.78125 9.644531 0.78125 10.9375 L 0.78125 15.625 C 0.78125 16.917969 1.832031 17.96875 3.125 17.96875 L 3.90625 17.96875 L 3.90625 43.046875 C 2.125 43.410156 0.78125 44.988281 0.78125 46.875 L 0.78125 49.21875 L 49.21875 49.21875 L 49.21875 46.875 C 49.21875 44.988281 47.875 43.410156 46.09375 43.046875 L 46.09375 17.96875 Z M 46.875 16.40625 L 41.40625 16.40625 L 41.40625 13.699219 L 40.910156 13.28125 L 47.65625 13.28125 L 47.65625 15.625 C 47.65625 16.054688 47.304688 16.40625 46.875 16.40625 Z M 33.59375 42.96875 L 33.59375 42.1875 C 33.59375 41.757812 33.945312 41.40625 34.375 41.40625 L 37.5 41.40625 C 37.929688 41.40625 38.28125 41.757812 38.28125 42.1875 L 38.28125 42.96875 Z M 28.90625 42.96875 L 21.09375 42.96875 L 21.09375 35.9375 C 21.09375 33.785156 22.847656 32.03125 25 32.03125 C 27.152344 32.03125 28.90625 33.785156 28.90625 35.9375 Z M 25 30.46875 C 21.984375 30.46875 19.53125 32.921875 19.53125 35.9375 L 19.53125 42.96875 L 17.96875 42.96875 L 17.96875 42.1875 C 17.96875 41.171875 17.3125 40.3125 16.40625 39.988281 L 16.40625 20.949219 C 17.3125 20.625 17.96875 19.765625 17.96875 18.75 L 17.96875 17.96875 L 32.03125 17.96875 L 32.03125 18.75 C 32.03125 19.765625 32.6875 20.625 33.59375 20.949219 L 33.59375 39.988281 C 32.6875 40.3125 32.03125 41.171875 32.03125 42.1875 L 32.03125 42.96875 L 30.46875 42.96875 L 30.46875 35.9375 C 30.46875 32.921875 28.015625 30.46875 25 30.46875 Z M 16.40625 17.96875 L 16.40625 18.75 C 16.40625 19.179688 16.054688 19.53125 15.625 19.53125 L 12.5 19.53125 C 12.070312 19.53125 11.71875 19.179688 11.71875 18.75 L 11.71875 17.96875 Z M 14.84375 21.09375 L 14.84375 39.84375 L 13.28125 39.84375 L 13.28125 21.09375 Z M 12.5 41.40625 L 15.625 41.40625 C 16.054688 41.40625 16.40625 41.757812 16.40625 42.1875 L 16.40625 42.96875 L 11.71875 42.96875 L 11.71875 42.1875 C 11.71875 41.757812 12.070312 41.40625 12.5 41.40625 Z M 35.15625 39.84375 L 35.15625 21.09375 L 36.71875 21.09375 L 36.71875 39.84375 Z M 37.5 19.53125 L 34.375 19.53125 C 33.945312 19.53125 33.59375 19.179688 33.59375 18.75 L 33.59375 17.96875 L 38.28125 17.96875 L 38.28125 18.75 C 38.28125 19.179688 37.929688 19.53125 37.5 19.53125 Z M 10.15625 16.40625 L 10.15625 14.84375 L 39.84375 14.84375 L 39.84375 16.40625 Z M 16.175781 13.28125 L 25 5.730469 L 33.824219 13.28125 Z M 46.875 10.15625 C 47.304688 10.15625 47.65625 10.507812 47.65625 10.9375 L 47.65625 11.71875 L 39.054688 11.71875 L 37.199219 10.15625 Z M 24.503906 2.34375 L 25.496094 2.34375 L 38.484375 13.28125 L 36.226562 13.28125 L 25 3.671875 L 13.773438 13.28125 L 11.515625 13.28125 Z M 3.125 10.15625 L 12.800781 10.15625 L 10.945312 11.71875 L 2.34375 11.71875 L 2.34375 10.9375 C 2.34375 10.507812 2.695312 10.15625 3.125 10.15625 Z M 2.34375 15.625 L 2.34375 13.28125 L 9.089844 13.28125 L 8.59375 13.699219 L 8.59375 16.40625 L 3.125 16.40625 C 2.695312 16.40625 2.34375 16.054688 2.34375 15.625 Z M 8.59375 17.96875 L 10.15625 17.96875 L 10.15625 18.75 C 10.15625 19.765625 10.8125 20.625 11.71875 20.949219 L 11.71875 39.988281 C 10.8125 40.3125 10.15625 41.171875 10.15625 42.1875 L 10.15625 42.96875 L 5.46875 42.96875 L 5.46875 17.96875 Z M 47.65625 46.875 L 47.65625 47.65625 L 2.34375 47.65625 L 2.34375 46.875 C 2.34375 45.582031 3.394531 44.53125 4.6875 44.53125 L 45.3125 44.53125 C 46.605469 44.53125 47.65625 45.582031 47.65625 46.875 Z M 44.53125 42.96875 L 39.84375 42.96875 L 39.84375 42.1875 C 39.84375 41.171875 39.1875 40.3125 38.28125 39.988281 L 38.28125 20.949219 C 39.1875 20.625 39.84375 19.765625 39.84375 18.75 L 39.84375 17.96875 L 44.53125 17.96875 Z M 44.53125 42.96875 "/>
</g>
</svg>
