<svg id="Layer_1" height="512" viewBox="0 0 512 512" width="512" xmlns="http://www.w3.org/2000/svg" data-name="Layer 1"><path d="m488.89 430.44a41.33 41.33 0 0 1 -58.45 58.45l-87.69-87.68 58.46-58.46z" fill="#F9AA68"/><path d="m316.028 336.696h82.675v41.337h-82.675z" fill="#F9AA68" transform="matrix(.707 -.707 .707 .707 -148.025 357.365)"/><path d="m293.25 59.43a165.336 165.336 0 1 1 -233.82 0 165.365 165.365 0 0 1 233.82 0z" fill="#f4f8fc"/><path d="m176.34 99.72a140.56 140.56 0 0 1 125.22 76.62 140.633 140.633 0 0 1 -250.44 0 140.56 140.56 0 0 1 125.22-76.62z" fill="#fce581"/><path d="m218.51 176.34a42.106 42.106 0 0 1 -23.25 37.67 41.652 41.652 0 0 1 -18.92 4.5 42.17 42.17 0 1 1 42.17-42.17z" fill="#F9AA68"/><path d="m197.09 172.57a21.092 21.092 0 1 1 -16.98-16.98 12.645 12.645 0 0 0 16.98 16.98z" fill="#F9AA68"/><path d="m109.43 293.25a165.339 165.339 0 0 1 91.91-280.35 165.338 165.338 0 1 0 0 326.874 164.582 164.582 0 0 1 -91.91-46.524z" fill="#ccd3df"/><path d="m91.12 176.34a140.7 140.7 0 0 1 105.22-75.207 140.8 140.8 0 0 0 -145.22 75.207 140.578 140.578 0 0 0 125.22 76.62 141.7 141.7 0 0 0 20-1.414 140.718 140.718 0 0 1 -105.22-75.206z" fill="#F9AA68"/><g fill="#284268"><path d="m376.223 309.282a6 6 0 0 0 -8.485 0l-24.986 24.985-41.1-41.1a171.155 171.155 0 0 0 -4.152-237.983c-66.805-66.8-175.5-66.8-242.311 0s-66.8 175.505 0 242.311a171.322 171.322 0 0 0 237.987 4.161l41.1 41.1-24.985 24.986a6 6 0 0 0 0 8.485l116.903 116.909a47.335 47.335 0 0 0 66.942-66.942zm-199.884 26.4a158.3 158.3 0 0 1 -112.67-46.67c-62.126-62.126-62.126-163.213 0-225.34a159.339 159.339 0 1 1 112.67 272.01zm195.641-13.672 20.743 20.743-49.97 49.97-20.743-20.743zm112.671 162.64a35.333 35.333 0 0 1 -49.97 0l-83.442-83.442 49.971-49.971 83.44 83.443a35.333 35.333 0 0 1 0 49.97z"/><path d="m176.339 93.724a146.08 146.08 0 0 0 -130.562 79.881 6 6 0 0 0 0 5.468 146.639 146.639 0 0 0 261.125 0 6 6 0 0 0 0-5.468 146.082 146.082 0 0 0 -130.563-79.881zm0 153.231a134.107 134.107 0 0 1 -118.439-70.616 134.638 134.638 0 0 1 236.884 0 134.106 134.106 0 0 1 -118.445 70.616z"/><path d="m199.756 167.2a6 6 0 0 0 -5.376.021 6.517 6.517 0 0 1 -2.968.7 6.659 6.659 0 0 1 -6.652-6.651 6.51 6.51 0 0 1 .7-2.967 6 6 0 0 0 -4.274-8.612 27.07 27.07 0 1 0 21.8 21.8 6 6 0 0 0 -3.23-4.291zm-23.417 24.231a15.088 15.088 0 0 1 -3.574-29.746 18.675 18.675 0 0 0 18.235 18.229 15.115 15.115 0 0 1 -14.661 11.512z"/><path d="m176.339 128.166a48.164 48.164 0 1 0 48.174 48.173 47.886 47.886 0 0 0 -48.174-48.173zm16.213 80.5a35.573 35.573 0 0 1 -16.213 3.852 36.214 36.214 0 0 1 -36.173-36.174 35.592 35.592 0 0 1 3.861-16.232 36.164 36.164 0 1 1 48.525 48.554z"/></g></svg>