<?xml version="1.0" encoding="UTF-8"?>
<svg xmlns="http://www.w3.org/2000/svg" xmlns:xlink="http://www.w3.org/1999/xlink" width="50pt" height="50pt" viewBox="0 0 50 50" version="1.1">
<g id="surface1">
<path style=" stroke:none;fill-rule:nonzero;fill:rgb(94.117647%,73.72549%,36.862745%);fill-opacity:1;" d="M 31.59375 43.101562 L 28.851562 39.0625 L 12.5 39.0625 L 12.5 32.8125 L 7.8125 32.8125 L 7.8125 39.0625 L 1.5625 39.0625 L 1.5625 43.75 L 32.8125 43.75 C 32.324219 43.75 31.867188 43.507812 31.59375 43.101562 Z M 31.59375 43.101562 "/>
<path style=" stroke:none;fill-rule:nonzero;fill:rgb(94.117647%,73.72549%,36.862745%);fill-opacity:1;" d="M 34.03125 43.101562 C 33.757812 43.507812 33.300781 43.75 32.8125 43.75 L 39.0625 43.75 L 39.0625 48.4375 L 43.75 48.4375 L 43.75 43.75 L 48.4375 43.75 L 48.4375 39.0625 L 36.773438 39.0625 Z M 34.03125 43.101562 "/>
<path style=" stroke:none;fill-rule:nonzero;fill:rgb(0%,0%,0%);fill-opacity:1;" d="M 38.179688 30 L 39.242188 28.429688 L 40.539062 29.304688 L 39.472656 30.875 Z M 38.179688 30 "/>
<path style=" stroke:none;fill-rule:nonzero;fill:rgb(0%,0%,0%);fill-opacity:1;" d="M 46.402344 26.265625 C 48.246094 23.550781 49.21875 20.382812 49.21875 17.101562 C 49.21875 8.101562 41.898438 0.78125 32.898438 0.78125 L 32.726562 0.78125 C 27.050781 0.78125 21.765625 3.765625 18.808594 8.59375 L 0.78125 8.59375 L 0.78125 10.316406 L 0.84375 10.464844 C 2.390625 14.074219 5.929688 16.40625 9.855469 16.40625 L 16.441406 16.40625 C 16.429688 16.636719 16.40625 16.867188 16.40625 17.101562 C 16.40625 18.417969 16.566406 19.71875 16.878906 20.992188 C 16.027344 20.8125 15.246094 20.390625 14.613281 19.761719 C 13.460938 18.605469 11.921875 17.96875 10.289062 17.96875 L 0.78125 17.96875 L 0.78125 19.53125 L 8.59375 19.53125 L 8.59375 21.09375 L 0.78125 21.09375 L 0.78125 22.65625 L 8.59375 22.65625 L 8.59375 24.21875 L 0.78125 24.21875 L 0.78125 25.78125 L 8.59375 25.78125 L 8.59375 27.34375 L 0.78125 27.34375 L 0.78125 28.90625 L 10.289062 28.90625 C 11.921875 28.90625 13.460938 28.269531 14.613281 27.113281 C 15.476562 26.253906 16.617188 25.78125 17.835938 25.78125 L 18.914062 25.78125 C 19.015625 25.941406 19.113281 26.105469 19.222656 26.265625 L 23.136719 32.03125 L 0.78125 32.03125 L 0.78125 49.21875 L 49.21875 49.21875 L 49.21875 32.03125 L 42.488281 32.03125 Z M 2.421875 10.15625 L 40.125 10.15625 C 40.585938 10.632812 40.996094 11.15625 41.355469 11.71875 L 21.550781 11.71875 L 19.570312 13.699219 C 18.832031 14.4375 17.851562 14.84375 16.808594 14.84375 L 9.855469 14.84375 C 6.667969 14.84375 3.785156 13.015625 2.421875 10.15625 Z M 27.40625 8.59375 C 29.011719 7.582031 30.871094 7.03125 32.8125 7.03125 C 34.792969 7.03125 36.636719 7.609375 38.199219 8.59375 Z M 42.183594 21.09375 L 23.449219 21.09375 C 22.933594 19.855469 22.65625 18.546875 22.65625 17.1875 C 22.65625 15.828125 22.933594 14.519531 23.449219 13.28125 L 42.183594 13.28125 C 42.6875 14.484375 42.96875 15.804688 42.96875 17.1875 C 42.96875 18.570312 42.6875 19.890625 42.183594 21.09375 Z M 18.53125 21.09375 C 18.164062 19.792969 17.96875 18.457031 17.96875 17.101562 C 17.96875 16.824219 17.992188 16.546875 18.007812 16.269531 C 19.011719 16.046875 19.933594 15.546875 20.675781 14.804688 L 21.578125 13.902344 C 21.265625 14.960938 21.09375 16.058594 21.09375 17.1875 C 21.09375 18.535156 21.320312 19.84375 21.765625 21.09375 Z M 13.511719 26.011719 C 12.648438 26.871094 11.507812 27.34375 10.289062 27.34375 L 10.15625 27.34375 L 10.15625 19.53125 L 10.289062 19.53125 C 11.507812 19.53125 12.648438 20.003906 13.511719 20.863281 C 14.664062 22.019531 16.203125 22.65625 17.835938 22.65625 L 41.355469 22.65625 C 40.996094 23.21875 40.585938 23.742188 40.125 24.21875 L 17.835938 24.21875 C 16.203125 24.21875 14.664062 24.855469 13.511719 26.011719 Z M 38.199219 25.78125 C 36.636719 26.765625 34.792969 27.34375 32.8125 27.34375 C 30.871094 27.34375 29.011719 26.792969 27.40625 25.78125 Z M 24.863281 25.78125 C 27.035156 27.792969 29.839844 28.90625 32.8125 28.90625 C 39.273438 28.90625 44.53125 23.648438 44.53125 17.1875 C 44.53125 10.726562 39.273438 5.46875 32.8125 5.46875 C 29.839844 5.46875 27.035156 6.582031 24.863281 8.59375 L 20.675781 8.59375 C 23.425781 4.710938 27.921875 2.34375 32.726562 2.34375 L 32.898438 2.34375 C 41.035156 2.34375 47.65625 8.964844 47.65625 17.101562 C 47.65625 20.066406 46.777344 22.933594 45.109375 25.386719 L 33.386719 42.664062 C 33.128906 43.042969 32.496094 43.042969 32.238281 42.664062 L 20.78125 25.78125 Z M 47.65625 33.59375 L 47.65625 47.65625 L 2.34375 47.65625 L 2.34375 33.59375 L 24.195312 33.59375 L 30.945312 43.542969 C 31.367188 44.160156 32.0625 44.53125 32.8125 44.53125 C 33.5625 44.53125 34.257812 44.160156 34.679688 43.542969 L 41.429688 33.59375 Z M 47.65625 33.59375 "/>
<path style=" stroke:none;fill-rule:nonzero;fill:rgb(0%,0%,0%);fill-opacity:1;" d="M 32.355469 38.59375 L 37.121094 31.558594 L 38.414062 32.433594 L 33.648438 39.46875 Z M 32.355469 38.59375 "/>
<path style=" stroke:none;fill-rule:nonzero;fill:rgb(0%,0%,0%);fill-opacity:1;" d="M 25.789062 30.359375 L 27.082031 29.480469 L 27.960938 30.773438 L 26.667969 31.652344 Z M 25.789062 30.359375 "/>
<path style=" stroke:none;fill-rule:nonzero;fill:rgb(0%,0%,0%);fill-opacity:1;" d="M 24.035156 27.816406 L 25.328125 26.941406 L 26.207031 28.234375 L 24.914062 29.109375 Z M 24.035156 27.816406 "/>
<path style=" stroke:none;fill-rule:nonzero;fill:rgb(0%,0%,0%);fill-opacity:1;" d="M 27.542969 32.992188 L 28.835938 32.113281 L 29.714844 33.410156 L 28.421875 34.285156 Z M 27.542969 32.992188 "/>
<path style=" stroke:none;fill-rule:nonzero;fill:rgb(0%,0%,0%);fill-opacity:1;" d="M 27.34375 14.84375 L 28.90625 14.84375 L 28.90625 16.40625 L 27.34375 16.40625 Z M 27.34375 14.84375 "/>
<path style=" stroke:none;fill-rule:nonzero;fill:rgb(0%,0%,0%);fill-opacity:1;" d="M 24.21875 14.84375 L 25.78125 14.84375 L 25.78125 16.40625 L 24.21875 16.40625 Z M 24.21875 14.84375 "/>
<path style=" stroke:none;fill-rule:nonzero;fill:rgb(0%,0%,0%);fill-opacity:1;" d="M 30.46875 14.84375 L 32.03125 14.84375 L 32.03125 16.40625 L 30.46875 16.40625 Z M 30.46875 14.84375 "/>
<path style=" stroke:none;fill-rule:nonzero;fill:rgb(0%,0%,0%);fill-opacity:1;" d="M 39.84375 17.96875 L 41.40625 17.96875 L 41.40625 19.53125 L 39.84375 19.53125 Z M 39.84375 17.96875 "/>
<path style=" stroke:none;fill-rule:nonzero;fill:rgb(0%,0%,0%);fill-opacity:1;" d="M 36.71875 17.96875 L 38.28125 17.96875 L 38.28125 19.53125 L 36.71875 19.53125 Z M 36.71875 17.96875 "/>
<path style=" stroke:none;fill-rule:nonzero;fill:rgb(0%,0%,0%);fill-opacity:1;" d="M 33.59375 17.96875 L 35.15625 17.96875 L 35.15625 19.53125 L 33.59375 19.53125 Z M 33.59375 17.96875 "/>
</g>
</svg>
