<?xml version="1.0" encoding="UTF-8"?>
<svg xmlns="http://www.w3.org/2000/svg" xmlns:xlink="http://www.w3.org/1999/xlink" width="50pt" height="50pt" viewBox="0 0 50 50" version="1.1">
<g id="surface1">
<path style=" stroke:none;fill-rule:nonzero;fill:#f9aa68;fill-opacity:1;" d="M 12.5 36.71875 C 7.765625 36.71875 3.90625 32.859375 3.90625 28.125 C 3.90625 23.390625 7.765625 19.53125 12.5 19.53125 C 17.234375 19.53125 21.09375 23.390625 21.09375 28.125 C 21.09375 32.859375 17.234375 36.71875 12.5 36.71875 Z M 12.5 36.71875 "/>
<path style=" stroke:none;fill-rule:nonzero;fill:#f9aa68;fill-opacity:1;" d="M 31.25 42.507812 L 37.179688 48.4375 L 43.289062 48.4375 L 31.25 36.398438 Z M 31.25 42.507812 "/>
<path style=" stroke:none;fill-rule:nonzero;fill:rgb(0%,0%,0%);fill-opacity:1;" d="M 19.53125 38.28125 L 5.46875 38.28125 C 4.609375 38.28125 3.90625 38.984375 3.90625 39.84375 L 3.90625 44.53125 C 3.90625 45.390625 4.609375 46.09375 5.46875 46.09375 L 19.53125 46.09375 C 20.390625 46.09375 21.09375 45.390625 21.09375 44.53125 L 21.09375 39.84375 C 21.09375 38.984375 20.390625 38.28125 19.53125 38.28125 Z M 19.53125 44.53125 L 5.46875 44.53125 L 5.46875 39.84375 L 19.53125 39.84375 Z M 19.53125 44.53125 "/>
<path style=" stroke:none;fill-rule:nonzero;fill:rgb(0%,0%,0%);fill-opacity:1;" d="M 11.71875 30.46875 C 11.289062 30.46875 10.9375 30.117188 10.9375 29.6875 L 9.375 29.6875 C 9.375 30.980469 10.425781 32.03125 11.71875 32.03125 L 11.71875 33.59375 L 13.28125 33.59375 L 13.28125 32.03125 L 15.625 32.03125 L 15.625 29.6875 C 15.625 28.394531 14.574219 27.34375 13.28125 27.34375 L 11.71875 27.34375 C 11.289062 27.34375 10.9375 26.992188 10.9375 26.5625 L 10.9375 25.78125 L 13.28125 25.78125 C 13.710938 25.78125 14.0625 26.132812 14.0625 26.5625 L 15.625 26.5625 C 15.625 25.269531 14.574219 24.21875 13.28125 24.21875 L 13.28125 22.65625 L 11.71875 22.65625 L 11.71875 24.21875 L 9.375 24.21875 L 9.375 26.5625 C 9.375 27.855469 10.425781 28.90625 11.71875 28.90625 L 13.28125 28.90625 C 13.710938 28.90625 14.0625 29.257812 14.0625 29.6875 L 14.0625 30.46875 Z M 11.71875 30.46875 "/>
<path style=" stroke:none;fill-rule:nonzero;fill:rgb(0%,0%,0%);fill-opacity:1;" d="M 49.21875 31.996094 C 49.21875 29.804688 47.914062 27.832031 45.902344 26.972656 L 43.128906 25.78125 L 40.589844 25.78125 C 40.609375 25.527344 40.625 25.269531 40.625 25 C 40.625 22.359375 39.65625 20.273438 38.28125 19.695312 L 38.28125 4.6875 C 38.28125 2.535156 36.527344 0.78125 34.375 0.78125 C 32.222656 0.78125 30.46875 2.535156 30.46875 4.6875 L 30.46875 20.3125 C 30.46875 21.605469 29.417969 22.65625 28.125 22.65625 L 24.21875 22.65625 L 24.21875 14.84375 C 24.21875 12.691406 22.464844 10.9375 20.3125 10.9375 L 19.53125 10.9375 L 19.53125 4.6875 C 19.53125 2.535156 17.777344 0.78125 15.625 0.78125 C 13.472656 0.78125 11.71875 2.535156 11.71875 4.6875 L 11.71875 5.523438 C 8.898438 5.878906 6.648438 8.117188 6.296875 10.9375 L 4.6875 10.9375 C 2.535156 10.9375 0.78125 12.691406 0.78125 14.84375 L 0.78125 45.3125 C 0.78125 47.464844 2.535156 49.21875 4.6875 49.21875 L 20.3125 49.21875 C 22.464844 49.21875 24.21875 47.464844 24.21875 45.3125 L 24.21875 24.21875 L 28.125 24.21875 C 30.277344 24.21875 32.03125 22.464844 32.03125 20.3125 L 32.03125 4.6875 C 32.03125 3.394531 33.082031 2.34375 34.375 2.34375 C 35.667969 2.34375 36.71875 3.394531 36.71875 4.6875 L 36.71875 19.695312 C 35.34375 20.273438 34.375 22.359375 34.375 25 C 34.375 25.265625 34.390625 25.523438 34.410156 25.78125 L 31.871094 25.78125 L 29.097656 26.972656 C 27.085938 27.832031 25.78125 29.804688 25.78125 31.996094 L 25.78125 36.71875 L 30.46875 36.71875 L 30.46875 49.21875 L 44.53125 49.21875 L 44.53125 36.71875 L 49.21875 36.71875 Z M 15.625 2.34375 C 16.917969 2.34375 17.96875 3.394531 17.96875 4.6875 L 17.96875 8.703125 C 17.023438 6.992188 15.304688 5.777344 13.28125 5.523438 L 13.28125 4.6875 C 13.28125 3.394531 14.332031 2.34375 15.625 2.34375 Z M 12.5 10.15625 C 13.359375 10.15625 14.0625 10.859375 14.0625 11.71875 C 14.0625 12.578125 13.359375 13.28125 12.5 13.28125 C 11.640625 13.28125 10.9375 12.578125 10.9375 11.71875 C 10.9375 10.859375 11.640625 10.15625 12.5 10.15625 Z M 4.6875 12.5 L 7.8125 12.5 L 7.8125 11.71875 C 7.8125 9.398438 9.507812 7.476562 11.71875 7.101562 L 11.71875 8.707031 C 10.375 9.054688 9.375 10.269531 9.375 11.71875 C 9.375 13.441406 10.777344 14.84375 12.5 14.84375 C 14.222656 14.84375 15.625 13.441406 15.625 11.71875 C 15.625 10.269531 14.625 9.054688 13.28125 8.707031 L 13.28125 7.101562 C 15.492188 7.476562 17.1875 9.398438 17.1875 11.71875 L 17.1875 12.5 L 20.3125 12.5 C 21.605469 12.5 22.65625 13.550781 22.65625 14.84375 L 22.65625 16.40625 L 2.34375 16.40625 L 2.34375 14.84375 C 2.34375 13.550781 3.394531 12.5 4.6875 12.5 Z M 20.3125 47.65625 L 4.6875 47.65625 C 3.394531 47.65625 2.34375 46.605469 2.34375 45.3125 L 2.34375 17.96875 L 22.65625 17.96875 L 22.65625 45.3125 C 22.65625 46.605469 21.605469 47.65625 20.3125 47.65625 Z M 41.46875 27.34375 L 37.5 33.011719 L 33.53125 27.34375 L 38.710938 27.34375 C 38.382812 28.328125 37.890625 28.90625 37.5 28.90625 L 37.5 30.46875 C 38.792969 30.46875 39.859375 29.222656 40.34375 27.34375 Z M 35.9375 25 C 35.9375 22.617188 36.867188 21.09375 37.5 21.09375 C 38.132812 21.09375 39.0625 22.617188 39.0625 25 C 39.0625 25.273438 39.046875 25.53125 39.023438 25.78125 L 35.976562 25.78125 C 35.953125 25.527344 35.9375 25.265625 35.9375 25 Z M 47.65625 35.15625 L 44.53125 35.15625 L 44.53125 32.03125 L 42.96875 32.03125 L 42.96875 47.65625 L 32.03125 47.65625 L 32.03125 32.03125 L 30.46875 32.03125 L 30.46875 35.15625 L 27.34375 35.15625 L 27.34375 31.996094 C 27.34375 30.429688 28.273438 29.023438 29.710938 28.40625 L 31.757812 27.53125 L 37.5 35.738281 L 43.242188 27.53125 L 45.289062 28.40625 C 46.726562 29.023438 47.65625 30.429688 47.65625 31.996094 Z M 47.65625 35.15625 "/>
<path style=" stroke:none;fill-rule:nonzero;fill:rgb(0%,0%,0%);fill-opacity:1;" d="M 39.84375 35.15625 L 41.40625 35.15625 L 41.40625 36.71875 L 39.84375 36.71875 Z M 39.84375 35.15625 "/>
</g>
</svg>
