<svg xmlns="http://www.w3.org/2000/svg" viewBox="-1 0 511 511.99913"><path d="m281.878906 453.070312c-13.003906-9.894531-28.105468-15.910156-44.148437-17.675781v-89.402343c0-5.523438-4.476563-10-10-10-5.519531 0-10 4.476562-10 10v89.402343c-16.039063 1.765625-31.144531 7.777344-44.148438 17.675781-15.101562 11.492188-26.351562 27.789063-31.691406 45.90625-.15625.488282-.273437 1-.355469 1.519532-.171875 1.144531-.144531 2.28125.066406 3.375.328126 1.742187 1.113282 3.328125 2.222657 4.625.652343.761718 1.421875 1.433594 2.292969 1.976562 1.320312.832032 2.851562 1.359375 4.492187 1.492188.273437.023437.546875.035156.820313.035156h.148437 152.457031c3.148438 0 6.113282-1.484375 8.003906-4.003906 1.886719-2.519532 2.476563-5.777344 1.597657-8.800782-5.316407-18.203124-16.59375-34.585937-31.757813-46.125zm-115.664062 38.925782c11.84375-22.40625 35.511718-37.160156 61.515625-37.160156 26.007812 0 49.671875 14.753906 61.515625 37.160156zm0 0"/><path d="m227.730469 319.210938c2.640625 0 5.207031-1.058594 7.070312-2.929688 1.867188-1.859375 2.929688-4.441406 2.929688-7.070312 0-2.628907-1.0625-5.210938-2.929688-7.070313-1.863281-1.859375-4.441406-2.929687-7.070312-2.929687-2.632813 0-5.210938 1.070312-7.070313 2.929687s-2.929687 4.441406-2.929687 7.070313c0 2.640624 1.066406 5.210937 2.929687 7.070312 1.859375 1.871094 4.4375 2.929688 7.070313 2.929688zm0 0"/><path d="m410.21875.0117188c-54.949219 0-99.65625 44.7070312-99.65625 99.6562502 0 6.535156.648438 13.019531 1.902344 19.375h-159.425782c10.128907-10.589844 21.316407-26.171875 24.140626-45.25 5.332031-36.0625-21.542969-68.816407-22.6875-70.191407-3.261719-3.914062-8.9375-4.753906-13.1875-1.949218-1.023438.671875-22.257813 14.863281-34.382813 37.828125-1.503906-1.746094-3.085937-3.457031-4.746094-5.117188-34.621093-34.625-89.480469-34.3749998-91.792969-34.3515622-5.429687.0664062-9.816406 4.4531252-9.882812 9.8828122-.023438 2.320313-.269531 57.175781 34.351562 91.796875 7.183594 7.179688 15.238282 12.859375 23.511719 17.351563h-14.117187c-3.144532 0-6.109375 1.484375-8 4.003906-1.886719 2.519531-2.480469 5.777344-1.597656 8.800781 6.601562 22.613282 17.308593 43.96875 31.3125 62.933594.199218.304688.414062.597656.648437.882812 11.199219 14.996094 24.46875 28.472657 39.425781 39.851563 35.230469 26.816406 77.3125 40.984375 121.695313 40.984375 44.386719 0 86.46875-14.167969 121.695312-40.980469 14.570313-11.089843 27.539063-24.167969 38.550781-38.699219 7.261719 1.65625 14.734376 2.507813 22.242188 2.507813 54.949219 0 99.65625-44.707031 99.65625-99.660156 0-54.949219-44.703125-99.6562502-99.65625-99.6562502zm-289.003906 56.5312502c4.984375-14.246094 15.984375-25.671875 23.46875-32.191407 6.316406 10.066407 15.40625 28.285157 12.710937 46.511719-2.367187 15.992188-13.410156 29.347657-22.132812 37.652344-1.71875-13.175781-5.757813-31.878906-15.210938-49.679687.46875-.699219.871094-1.460938 1.164063-2.292969zm-100.070313-35.886719c15.9375 1.636719 46.464844 7.425781 66.890625 27.851562 20.425782 20.425782 26.210938 50.957032 27.851563 66.886719-15.941407-1.636719-46.464844-7.421875-66.890625-27.847656-20.429688-20.429687-26.214844-50.957031-27.851563-66.890625zm376.203125 118.386719c-5.183594 13.785156-12 26.699219-20.171875 38.558593-21.316406-19.015624-48.511719-29.414062-77.308593-29.414062-31.066407 0-60.277344 12.097656-82.246094 34.066406-37.34375 37.34375-97.96875 37.535156-135.570313.601563-9.859375-13.265625-17.972656-27.964844-23.933593-43.8125zm-19.808594-39.402344c0-18.019531 14.660157-32.679687 32.679688-32.679687 18.023438 0 32.683594 14.660156 32.683594 32.679687 0 14.203125-9.109375 26.308594-21.789063 30.808594.152344-1.074219.132813-2.144531-.050781-3.171875-.390625-2.183594-1.488281-4.125-3.050781-5.570313-.164063-.148437-.328125-.292969-.5-.433593-1.71875-1.394532-3.910157-2.230469-6.296875-2.230469h-27.292969c-4.179687-5.640625-6.382813-12.320313-6.382813-19.402344zm-149.804687 156.859375c-34.433594 0-67.289063-9.929688-95.335937-27.351562 5.675781.835937 11.398437 1.261718 17.121093 1.261718 29.785157 0 59.570313-11.339844 82.246094-34.015625 18.191406-18.191406 42.375-28.207031 68.101563-28.207031 24.304687 0 47.234374 8.945312 65.035156 25.273438-33.757813 38.96875-83.554688 63.039062-137.167969 63.039062zm182.484375-77.175781c-3.34375 0-6.675781-.210938-9.976562-.621094 5.105468-8.496094 9.582031-17.359375 13.382812-26.503906 27.464844-1.761719 49.277344-24.65625 49.277344-52.558594 0-29.046875-23.632813-52.679687-52.683594-52.679687-29.046875 0-52.679688 23.632812-52.679688 52.679687 0 6.671875 1.285157 13.261719 3.714844 19.402344h-28.316406c-1.574219-6.304688-2.375-12.808594-2.375-19.375 0-43.921875 35.734375-79.65625 79.65625-79.65625s79.65625 35.734375 79.65625 79.65625c0 43.925781-35.730469 79.65625-79.65625 79.65625zm0 0"/></svg>