<svg xmlns="http://www.w3.org/2000/svg" id="Layer_35" enable-background="new 0 0 64 64" viewBox="0 0 64 64"><path d="m14 62h-8c0-4.57 2.08-8.79 5.51-11.57.24.55.56 1.05.95 1.49 1.02 3.26 1.54 6.65 1.54 10.08z" fill="#e6e9ed"/><path d="m58 62h-8c0-4.05.73-8.05 2.14-11.83 1.31.98 2.43 2.18 3.33 3.53 1.61 2.4 2.53 5.28 2.53 8.3z" fill="#e6e9ed"/><path d="m52.14 50.17c-1.41 3.78-2.14 7.78-2.14 11.83h-36c0-3.43-.52-6.82-1.54-10.08 1.1 1.27 2.73 2.08 4.54 2.08h2c.19 0 .38-.01.57-.02l.43 2.02h12 12l1.92-8.94 2.82 1.15c1.23.51 2.37 1.16 3.4 1.96z" fill="#ff826e"/><path d="m32 47-5 5-.97-2.18c.62-1.13.97-2.43.97-3.82 0-.94-.02-1.81-.06-2.61z" fill="#ccd1d9"/><path d="m40.23 44.73-3.23 7.27-5-5 5.28-3.77c.35.34.76.6 1.21.79z" fill="#ccd1d9"/><path d="m32 47v9h-12l-.43-2.02c1.98-.14 3.77-1.01 5.09-2.32.54-.54 1-1.16 1.37-1.84l.97 2.18z" fill="#e6e9ed"/><path d="m45.92 47.06-1.92 8.94h-12v-9l5 5 3.23-7.27z" fill="#e6e9ed"/><path d="m48 18c0 2.62-1.01 4.99-2.66 6.77-.4-.29-.85-.5-1.34-.63v-5.84c0-.72-.58-1.3-1.3-1.3-.44 0-.83.23-1.08.59-1.92 2.75-5.07 4.41-8.45 4.41h-.17v-3.63c0-.76-.61-1.37-1.37-1.37-.4 0-.77.18-1.04.48-2.52 2.87-6.16 4.52-9.99 4.52h-.6v2.14c-.49.13-.94.34-1.34.63-.82-.89-1.49-1.93-1.95-3.07s-.71-2.39-.71-3.7c0-4.92 2.22-9.33 5.72-12.26 2.78-2.34 6.36-3.74 10.28-3.74 4.42 0 8.42 1.79 11.32 4.68 2.89 2.9 4.68 6.9 4.68 11.32z" fill="#fcd770"/><g fill="#f0d0b4"><path d="m45.34 24.77c1.01.73 1.66 1.9 1.66 3.23 0 2.21-1.79 4-4 4h-.76c1.14-2.34 1.76-4.94 1.76-7.65v-.21c.49.13.94.34 1.34.63z"/><path d="m42.24 32c-1.38 2.86-3.53 5.32-6.24 7.07-1.23.8-2.57 1.45-4 1.93-2.17-.73-4.13-1.85-5.81-3.27-1.86-1.59-3.37-3.54-4.43-5.73-1.14-2.34-1.76-4.94-1.76-7.65v-.21-2.14h.6c3.83 0 7.47-1.65 9.99-4.52.27-.3.64-.48 1.04-.48.76 0 1.37.61 1.37 1.37v3.63h.17c3.38 0 6.53-1.66 8.45-4.41.25-.36.64-.59 1.08-.59.72 0 1.3.58 1.3 1.3v5.84.21c0 2.71-.62 5.31-1.76 7.65z"/><path d="m37.28 43.23-5.28 3.77-5.06-3.61c-.1-2.45-.37-4.27-.75-5.66 1.68 1.42 3.64 2.54 5.81 3.27 1.43-.48 2.77-1.13 4-1.93v1.24c0 1.14.48 2.19 1.28 2.92z"/></g><path d="m12.14 44.48c-1.87-3.53-6.14-12.98-6.14-25.48 0-11 8-14 13-14 .88 0 1.81.29 2.72.74-3.5 2.93-5.72 7.34-5.72 12.26 0 1.31.25 2.56.71 3.7s1.13 2.18 1.95 3.07c-1.01.73-1.66 1.9-1.66 3.23 0 2.21 1.79 4 4 4h.76c1.06 2.19 2.57 4.14 4.43 5.73.38 1.39.65 3.21.75 5.66.04.8.06 1.67.06 2.61 0 1.39-.35 2.69-.97 3.82-.37.68-.83 1.3-1.37 1.84-1.32 1.31-3.11 2.18-5.09 2.32-.19.01-.38.02-.57.02h-2c-1.81 0-3.44-.81-4.54-2.08-.39-.44-.71-.94-.95-1.49-.33-.74-.51-1.56-.51-2.43 0-1.32.42-2.53 1.14-3.52z" fill="#fcd770"/><path d="m21.76 32h-.76c-2.21 0-4-1.79-4-4 0-1.33.65-2.5 1.66-3.23.4-.29.85-.5 1.34-.63v.21c0 2.71.62 5.31 1.76 7.65z" fill="#f0d0b4"/><circle cx="26" cy="24" r="1"/><circle cx="38" cy="24" r="1"/><path d="m32 34c-1.103 0-2-.897-2-2h-2c0 2.206 1.794 4 4 4s4-1.794 4-4h-2c0 1.103-.897 2-2 2z"/><path d="m40.192 10.667 1.489-1.335c-2.467-2.753-5.996-4.332-9.681-4.332v2c3.118 0 6.103 1.337 8.192 3.667z"/><path d="m42.372 14.334 1.885-.668c-.266-.75-.603-1.479-1.003-2.168l-1.729 1.004c.337.582.622 1.199.847 1.832z"/><path d="m13.077 39.412 1.847-.768c-1.338-3.218-3.064-8.388-3.684-14.741l-1.99.194c.643 6.599 2.436 11.97 3.827 15.315z"/><path d="m11.01 19.98-2 .039c.014.69.041 1.37.08 2.039l1.996-.117c-.038-.643-.064-1.296-.076-1.961z"/><path d="m49.123 47.289-10.259-4.198c-1.133-.463-1.864-1.553-1.864-2.777v-.718c2.469-1.706 4.474-3.972 5.857-6.597h.143c2.757 0 5-2.243 5-5 0-1.258-.485-2.417-1.282-3.307 1.477-1.915 2.282-4.255 2.282-6.692 0-9.374-7.626-17-17-17-3.925 0-7.533 1.35-10.413 3.592-.918-.386-1.787-.592-2.587-.592-5.2 0-14 3.159-14 15 0 12.18 3.994 21.522 5.989 25.431-.624 1.046-.989 2.264-.989 3.569 0 .749.121 1.469.34 2.146-3.391 3.017-5.34 7.286-5.34 11.854v1h54v-1c0-6.482-3.877-12.257-9.877-14.711zm1.833 3.242c-1.182 3.39-1.832 6.903-1.934 10.469h-34.06c-.064-2.226-.326-4.439-.814-6.614.872.391 1.836.614 2.852.614h1.763l.429 2h25.617l1.835-8.565 1.722.705c.924.377 1.79.845 2.59 1.391zm-22.962-5.164 2.464 1.76-3.136 3.136-.191-.43c.551-1.165.869-2.461.869-3.833 0-.217-.004-.422-.006-.633zm-2.159 6.473.843 1.897 4.322-4.322v5.585h-10.191l-.038-.177c2.011-.403 3.778-1.481 5.064-2.983zm7.165-2.425 4.322 4.322 3.428-7.713 4.013 1.642-1.572 7.334h-10.191zm5.899-4.149-2.221 4.997-3.136-3.136 3.709-2.649c.269.177.55.339.856.464zm-3.086-2.219-3.813 2.724-4.085-2.918c-.057-1.015-.141-1.953-.258-2.809 1.241.781 2.589 1.425 4.027 1.905l.316.105.316-.105c.947-.316 1.855-.702 2.719-1.153.079.817.345 1.587.778 2.251zm-3.813-3.105c-6.594-2.345-11-8.568-11-15.591v-1.357c3.964-.111 7.715-1.865 10.345-4.85.047-.054.147-.144.286-.144.203 0 .369.166.369.369v4.631h1.169c3.693 0 7.158-1.809 9.27-4.838.034-.049.127-.162.264-.162.164 0 .297.133.297.297v6.054c0 7.023-4.406 13.247-11 15.591zm-12.945-14.203c.133 1.787.529 3.51 1.14 5.138-1.262-.355-2.195-1.503-2.195-2.877 0-.893.405-1.707 1.055-2.261zm24.75 5.138c.611-1.628 1.007-3.351 1.14-5.138.65.554 1.055 1.368 1.055 2.261 0 1.374-.933 2.522-2.195 2.877zm3.195-12.877c0 2-.665 3.921-1.883 5.491-.039-.018-.077-.038-.117-.056v-5.138c0-1.266-1.031-2.297-2.297-2.297-.749 0-1.461.381-1.905 1.019-1.578 2.264-4.076 3.7-6.798 3.944v-2.594c0-1.306-1.063-2.369-2.369-2.369-.676 0-1.328.3-1.788.823-2.338 2.655-5.708 4.177-9.246 4.177h-1.597v2.436c-.04.017-.078.037-.117.055-1.218-1.569-1.883-3.49-1.883-5.491 0-8.271 6.729-15 15-15s15 6.729 15 15zm-28-12c.269 0 .56.045.865.117-3.005 3.068-4.865 7.26-4.865 11.883 0 2.437.805 4.778 2.282 6.692-.797.891-1.282 2.05-1.282 3.308 0 2.757 2.243 5 5 5h.143c1.05 1.992 2.453 3.783 4.15 5.276.474 1.922.707 4.449.707 7.724 0 3.86-3.14 7-7 7h-2c-2.757 0-5-2.243-5-5s2.243-5 5-5 5 2.243 5 5v1h2v-1c0-3.86-3.14-7-7-7-1.768 0-3.38.664-4.613 1.749-2.007-4.135-5.387-12.731-5.387-23.749 0-12.635 10.772-13 12-13zm-7.737 45.999c.092.132.188.261.288.385.859 2.805 1.322 5.698 1.411 8.616h-5.926c.244-3.434 1.749-6.619 4.227-9.001zm39.759 9.001c.095-3.106.623-6.17 1.588-9.139 2.518 2.354 4.103 5.592 4.354 9.139z"/></svg>