<svg id="Layer_1" height="512" viewBox="0 0 150 150" width="512" xmlns="http://www.w3.org/2000/svg" data-name="Layer 1"><circle cx="75" cy="75" fill="#334d5c" r="64"/><circle cx="75" cy="100.53" fill="#dc8744" r="7.44"/><circle cx="75" cy="47.34" fill="#fcd462" r="5.31"/><path d="m93.46 73.44c-.27-8.65-2.64-14.32-5.58-18a16.41 16.41 0 0 0 -25.83 0c-2.95 3.72-5.31 9.39-5.59 18-.79 24.65-9.78 27.24-9.78 27.24h56.56s-8.98-2.59-9.78-27.24z" fill="#ebf0f3"/><path d="m93.5 72.88c-.28-8.65-2.64-14.32-5.59-18a16.4 16.4 0 0 0 -25.82 0c-3 3.72-5.31 9.39-5.59 18-.79 24.65-9.78 27.23-9.78 27.23h56.56s-8.99-2.58-9.78-27.23z" fill="#fcd462"/><path d="m103.86 98.39h-57.72a1.43 1.43 0 0 0 0 2.85h57.72a1.43 1.43 0 0 0 0-2.85z" fill="#f7be56"/></svg>